<svg width="43" height="28" viewBox="0 0 43 28" fill="none" xmlns="http://www.w3.org/2000/svg">
<path fill-rule="evenodd" clip-rule="evenodd" d="M11.1994 0.246875C9.34674 0.878583 8.02902 2.30986 7.52753 4.23537C7.13861 5.72841 7.36593 6.83593 8.7768 10.3216C11.0573 15.956 11.8797 17.9426 12.0238 18.1652C12.2318 18.4867 12.8526 18.7575 13.3814 18.7575C14.1028 18.7575 14.5118 18.3131 14.8705 17.1393C15.0319 16.6113 15.8074 14.2077 16.5939 11.7978C18.4348 6.15771 18.5152 5.77493 18.1678 4.30218C17.5653 1.74617 15.3798 -0.00809046 12.8086 2.80607e-05C12.1788 0.00200284 11.7039 0.0748501 11.1994 0.246875ZM27.7681 0.204086C26.4289 0.637001 25.5284 1.31556 24.7947 2.4448C24.1692 3.4075 23.8848 4.36571 23.893 5.48266C23.9019 6.68749 23.9233 6.76593 26.2088 13.9303C26.5071 14.8656 26.9143 16.1633 27.1138 16.8142C27.4278 17.8395 27.5343 18.0502 27.9103 18.3898C28.3241 18.7637 28.3745 18.7797 28.994 18.7349C29.8413 18.6736 30.1376 18.3749 30.6587 17.057C30.8734 16.514 31.7221 14.4158 32.5449 12.3944C33.3676 10.373 34.1798 8.29946 34.3498 7.78656C35.1542 5.3599 34.7408 3.24722 33.1452 1.63075C32.0276 0.49855 30.819 -0.00732418 29.2566 0.00309824C28.7232 0.00660896 28.1318 0.0864777 27.7681 0.204086ZM3.85917 8.8502C3.15495 9.22091 3.15429 9.22234 2.14035 12.9429C0.252683 19.8692 0.00243499 20.9321 2.13791e-05 22.0352C-0.00359904 23.6714 0.452356 24.8087 1.55604 25.917C4.88408 29.2585 10.5951 27.0133 10.6682 22.3346C10.692 20.8135 10.616 20.5555 9.06358 16.8925C8.53928 15.6555 7.78798 13.8782 7.39402 12.9429C5.95144 9.51866 5.80213 9.2106 5.46894 8.9734C5.0233 8.65601 4.32917 8.60292 3.85917 8.8502ZM20.4724 8.81389C19.7943 9.12601 19.6907 9.36112 17.9954 14.4357C17.0904 17.1446 16.2284 19.823 16.0798 20.3877C15.5043 22.5758 15.8965 24.4074 17.2464 25.8346C17.7359 26.3521 17.8727 26.4899 18.5076 26.8389C20.1474 27.7402 21.8349 27.7722 23.4863 26.9332C24.2188 26.5612 25.3063 25.4821 25.7084 24.7285C26.3231 23.5766 26.4984 22.1166 26.1819 20.7872C25.9069 19.6322 22.517 9.61422 22.3035 9.32568C21.9099 8.79348 21.0431 8.55113 20.4724 8.81389ZM36.9289 8.86863C36.3601 9.12744 36.3238 9.17812 35.7784 10.4745C35.5246 11.0779 35.0716 12.1393 34.7719 12.8332C34.4721 13.5271 34.1846 14.1936 34.1328 14.3143C34.081 14.435 33.7819 15.1508 33.4683 15.9051C33.1545 16.6593 32.7106 17.6991 32.4818 18.2155C31.5815 20.2475 31.297 21.5683 31.4909 22.8172C31.8122 24.8884 33.0763 26.4829 35.0089 27.2548C35.8097 27.5746 37.3484 27.6115 38.2653 27.333C40.0454 26.7923 41.3051 25.5396 41.9239 23.6945C42.1318 23.0746 42.1561 22.8164 42.109 21.7197C42.0586 20.5426 41.9803 20.1858 40.9415 16.3988C38.8675 8.8378 38.9846 9.15936 38.1898 8.84132C37.6322 8.61817 37.4718 8.62168 36.9289 8.86863Z" fill="#6136B5"/>
<mask id="mask0_2375_4785" style="mask-type:alpha" maskUnits="userSpaceOnUse" x="0" y="0" width="43" height="28">
<path fill-rule="evenodd" clip-rule="evenodd" d="M11.1994 0.246875C9.34674 0.878583 8.02902 2.30986 7.52753 4.23537C7.13861 5.72841 7.36593 6.83593 8.7768 10.3216C11.0573 15.956 11.8797 17.9426 12.0238 18.1652C12.2318 18.4867 12.8526 18.7575 13.3814 18.7575C14.1028 18.7575 14.5118 18.3131 14.8705 17.1393C15.0319 16.6113 15.8074 14.2077 16.5939 11.7978C18.4348 6.15771 18.5152 5.77493 18.1678 4.30218C17.5653 1.74617 15.3798 -0.00809046 12.8086 2.80607e-05C12.1788 0.00200284 11.7039 0.0748501 11.1994 0.246875ZM27.7681 0.204086C26.4289 0.637001 25.5284 1.31556 24.7947 2.4448C24.1692 3.4075 23.8848 4.36571 23.893 5.48266C23.9019 6.68749 23.9233 6.76593 26.2088 13.9303C26.5071 14.8656 26.9143 16.1633 27.1138 16.8142C27.4278 17.8395 27.5343 18.0502 27.9103 18.3898C28.3241 18.7637 28.3745 18.7797 28.994 18.7349C29.8413 18.6736 30.1376 18.3749 30.6587 17.057C30.8734 16.514 31.7221 14.4158 32.5449 12.3944C33.3676 10.373 34.1798 8.29946 34.3498 7.78656C35.1542 5.3599 34.7408 3.24722 33.1452 1.63075C32.0276 0.49855 30.819 -0.00732418 29.2566 0.00309824C28.7232 0.00660896 28.1318 0.0864777 27.7681 0.204086ZM3.85917 8.8502C3.15495 9.22091 3.15429 9.22234 2.14035 12.9429C0.252683 19.8692 0.00243499 20.9321 2.13791e-05 22.0352C-0.00359904 23.6714 0.452356 24.8087 1.55604 25.917C4.88408 29.2585 10.5951 27.0133 10.6682 22.3346C10.692 20.8135 10.616 20.5555 9.06358 16.8925C8.53928 15.6555 7.78798 13.8782 7.39402 12.9429C5.95144 9.51866 5.80213 9.2106 5.46894 8.9734C5.0233 8.65601 4.32917 8.60292 3.85917 8.8502ZM20.4724 8.81389C19.7943 9.12601 19.6907 9.36112 17.9954 14.4357C17.0904 17.1446 16.2284 19.823 16.0798 20.3877C15.5043 22.5758 15.8965 24.4074 17.2464 25.8346C17.7359 26.3521 17.8727 26.4899 18.5076 26.8389C20.1474 27.7402 21.8349 27.7722 23.4863 26.9332C24.2188 26.5612 25.3063 25.4821 25.7084 24.7285C26.3231 23.5766 26.4984 22.1166 26.1819 20.7872C25.9069 19.6322 22.517 9.61422 22.3035 9.32568C21.9099 8.79348 21.0431 8.55113 20.4724 8.81389ZM36.9289 8.86863C36.3601 9.12744 36.3238 9.17812 35.7784 10.4745C35.5246 11.0779 35.0716 12.1393 34.7719 12.8332C34.4721 13.5271 34.1846 14.1936 34.1328 14.3143C34.081 14.435 33.7819 15.1508 33.4683 15.9051C33.1545 16.6593 32.7106 17.6991 32.4818 18.2155C31.5815 20.2475 31.297 21.5683 31.4909 22.8172C31.8122 24.8884 33.0763 26.4829 35.0089 27.2548C35.8097 27.5746 37.3484 27.6115 38.2653 27.333C40.0454 26.7923 41.3051 25.5396 41.9239 23.6945C42.1318 23.0746 42.1561 22.8164 42.109 21.7197C42.0586 20.5426 41.9803 20.1858 40.9415 16.3988C38.8675 8.8378 38.9846 9.15936 38.1898 8.84132C37.6322 8.61817 37.4718 8.62168 36.9289 8.86863Z" fill="#6136B5"/>
</mask>
<g mask="url(#mask0_2375_4785)">
<path d="M31.9931 16.1565C33.2601 12.3553 35.3719 9.18769 36.2694 8.07902C38.0116 7.92064 41.591 7.69891 41.9711 8.07902C42.4462 8.55416 44.5052 11.7218 44.8219 12.6721C45.1387 13.6224 45.2971 21.6998 45.2971 23.1252C45.2971 24.5506 39.7537 31.2026 39.2786 31.2026C38.8985 31.2026 32.5738 28.6685 29.459 27.4015C29.7757 25.237 30.726 19.9576 31.9931 16.1565Z" fill="#6136B5"/>
</g>
<mask id="mask1_2375_4785" style="mask-type:alpha" maskUnits="userSpaceOnUse" x="0" y="0" width="43" height="28">
<path fill-rule="evenodd" clip-rule="evenodd" d="M11.1994 0.246875C9.34674 0.878583 8.02902 2.30986 7.52753 4.23537C7.13861 5.72841 7.36593 6.83593 8.7768 10.3216C11.0573 15.956 11.8797 17.9426 12.0238 18.1652C12.2318 18.4867 12.8526 18.7575 13.3814 18.7575C14.1028 18.7575 14.5118 18.3131 14.8705 17.1393C15.0319 16.6113 15.8074 14.2077 16.5939 11.7978C18.4348 6.15771 18.5152 5.77493 18.1678 4.30218C17.5653 1.74617 15.3798 -0.00809046 12.8086 2.80607e-05C12.1788 0.00200284 11.7039 0.0748501 11.1994 0.246875ZM27.7681 0.204086C26.4289 0.637001 25.5284 1.31556 24.7947 2.4448C24.1692 3.4075 23.8848 4.36571 23.893 5.48266C23.9019 6.68749 23.9233 6.76593 26.2088 13.9303C26.5071 14.8656 26.9143 16.1633 27.1138 16.8142C27.4278 17.8395 27.5343 18.0502 27.9103 18.3898C28.3241 18.7637 28.3745 18.7797 28.994 18.7349C29.8413 18.6736 30.1376 18.3749 30.6587 17.057C30.8734 16.514 31.7221 14.4158 32.5449 12.3944C33.3676 10.373 34.1798 8.29946 34.3498 7.78656C35.1542 5.3599 34.7408 3.24722 33.1452 1.63075C32.0276 0.49855 30.819 -0.00732418 29.2566 0.00309824C28.7232 0.00660896 28.1318 0.0864777 27.7681 0.204086ZM3.85917 8.8502C3.15495 9.22091 3.15429 9.22234 2.14035 12.9429C0.252683 19.8692 0.00243499 20.9321 2.13791e-05 22.0352C-0.00359904 23.6714 0.452356 24.8087 1.55604 25.917C4.88408 29.2585 10.5951 27.0133 10.6682 22.3346C10.692 20.8135 10.616 20.5555 9.06358 16.8925C8.53928 15.6555 7.78798 13.8782 7.39402 12.9429C5.95144 9.51866 5.80213 9.2106 5.46894 8.9734C5.0233 8.65601 4.32917 8.60292 3.85917 8.8502ZM20.4724 8.81389C19.7943 9.12601 19.6907 9.36112 17.9954 14.4357C17.0904 17.1446 16.2284 19.823 16.0798 20.3877C15.5043 22.5758 15.8965 24.4074 17.2464 25.8346C17.7359 26.3521 17.8727 26.4899 18.5076 26.8389C20.1474 27.7402 21.8349 27.7722 23.4863 26.9332C24.2188 26.5612 25.3063 25.4821 25.7084 24.7285C26.3231 23.5766 26.4984 22.1166 26.1819 20.7872C25.9069 19.6322 22.517 9.61422 22.3035 9.32568C21.9099 8.79348 21.0431 8.55113 20.4724 8.81389ZM36.9289 8.86863C36.3601 9.12744 36.3238 9.17812 35.7784 10.4745C35.5246 11.0779 35.0716 12.1393 34.7719 12.8332C34.4721 13.5271 34.1846 14.1936 34.1328 14.3143C34.081 14.435 33.7819 15.1508 33.4683 15.9051C33.1545 16.6593 32.7106 17.6991 32.4818 18.2155C31.5815 20.2475 31.297 21.5683 31.4909 22.8172C31.8122 24.8884 33.0763 26.4829 35.0089 27.2548C35.8097 27.5746 37.3484 27.6115 38.2653 27.333C40.0454 26.7923 41.3051 25.5396 41.9239 23.6945C42.1318 23.0746 42.1561 22.8164 42.109 21.7197C42.0586 20.5426 41.9803 20.1858 40.9415 16.3988C38.8675 8.8378 38.9846 9.15936 38.1898 8.84132C37.6322 8.61817 37.4718 8.62168 36.9289 8.86863Z" fill="#00BC93"/>
</mask>
<g mask="url(#mask1_2375_4785)">
<path d="M21.8564 1.10689L24.2322 12.6687L27.2414 19.7958H30.0923L34.5269 11.4017L36.4275 3.95775L34.0518 -1.4272L28.3501 -1.90234L21.8564 1.10689Z" fill="#00BC93"/>
</g>
<mask id="mask2_2375_4785" style="mask-type:alpha" maskUnits="userSpaceOnUse" x="0" y="0" width="43" height="28">
<path fill-rule="evenodd" clip-rule="evenodd" d="M11.1994 0.246875C9.34674 0.878583 8.02902 2.30986 7.52753 4.23537C7.13861 5.72841 7.36593 6.83593 8.7768 10.3216C11.0573 15.956 11.8797 17.9426 12.0238 18.1652C12.2318 18.4867 12.8526 18.7575 13.3814 18.7575C14.1028 18.7575 14.5118 18.3131 14.8705 17.1393C15.0319 16.6113 15.8074 14.2077 16.5939 11.7978C18.4348 6.15771 18.5152 5.77493 18.1678 4.30218C17.5653 1.74617 15.3798 -0.00809046 12.8086 2.80607e-05C12.1788 0.00200284 11.7039 0.0748501 11.1994 0.246875ZM27.7681 0.204086C26.4289 0.637001 25.5284 1.31556 24.7947 2.4448C24.1692 3.4075 23.8848 4.36571 23.893 5.48266C23.9019 6.68749 23.9233 6.76593 26.2088 13.9303C26.5071 14.8656 26.9143 16.1633 27.1138 16.8142C27.4278 17.8395 27.5343 18.0502 27.9103 18.3898C28.3241 18.7637 28.3745 18.7797 28.994 18.7349C29.8413 18.6736 30.1376 18.3749 30.6587 17.057C30.8734 16.514 31.7221 14.4158 32.5449 12.3944C33.3676 10.373 34.1798 8.29946 34.3498 7.78656C35.1542 5.3599 34.7408 3.24722 33.1452 1.63075C32.0276 0.49855 30.819 -0.00732418 29.2566 0.00309824C28.7232 0.00660896 28.1318 0.0864777 27.7681 0.204086ZM3.85917 8.8502C3.15495 9.22091 3.15429 9.22234 2.14035 12.9429C0.252683 19.8692 0.00243499 20.9321 2.13791e-05 22.0352C-0.00359904 23.6714 0.452356 24.8087 1.55604 25.917C4.88408 29.2585 10.5951 27.0133 10.6682 22.3346C10.692 20.8135 10.616 20.5555 9.06358 16.8925C8.53928 15.6555 7.78798 13.8782 7.39402 12.9429C5.95144 9.51866 5.80213 9.2106 5.46894 8.9734C5.0233 8.65601 4.32917 8.60292 3.85917 8.8502ZM20.4724 8.81389C19.7943 9.12601 19.6907 9.36112 17.9954 14.4357C17.0904 17.1446 16.2284 19.823 16.0798 20.3877C15.5043 22.5758 15.8965 24.4074 17.2464 25.8346C17.7359 26.3521 17.8727 26.4899 18.5076 26.8389C20.1474 27.7402 21.8349 27.7722 23.4863 26.9332C24.2188 26.5612 25.3063 25.4821 25.7084 24.7285C26.3231 23.5766 26.4984 22.1166 26.1819 20.7872C25.9069 19.6322 22.517 9.61422 22.3035 9.32568C21.9099 8.79348 21.0431 8.55113 20.4724 8.81389ZM36.9289 8.86863C36.3601 9.12744 36.3238 9.17812 35.7784 10.4745C35.5246 11.0779 35.0716 12.1393 34.7719 12.8332C34.4721 13.5271 34.1846 14.1936 34.1328 14.3143C34.081 14.435 33.7819 15.1508 33.4683 15.9051C33.1545 16.6593 32.7106 17.6991 32.4818 18.2155C31.5815 20.2475 31.297 21.5683 31.4909 22.8172C31.8122 24.8884 33.0763 26.4829 35.0089 27.2548C35.8097 27.5746 37.3484 27.6115 38.2653 27.333C40.0454 26.7923 41.3051 25.5396 41.9239 23.6945C42.1318 23.0746 42.1561 22.8164 42.109 21.7197C42.0586 20.5426 41.9803 20.1858 40.9415 16.3988C38.8675 8.8378 38.9846 9.15936 38.1898 8.84132C37.6322 8.61817 37.4718 8.62168 36.9289 8.86863Z" fill="#6136B5"/>
</mask>
<g mask="url(#mask2_2375_4785)">
<path d="M26.7663 19.7973L23.2819 7.7603L21.0646 7.28516L19.0056 9.50249L16.6299 15.521L14.8877 19.7973C15.0461 21.8562 15.4579 26.3542 15.838 27.8747C16.3131 29.7753 16.9466 29.6169 17.7386 30.2504C18.3721 30.7572 24.021 29.1945 26.7663 28.3498V19.7973Z" fill="#6136B5"/>
</g>
<mask id="mask3_2375_4785" style="mask-type:alpha" maskUnits="userSpaceOnUse" x="0" y="0" width="43" height="28">
<path fill-rule="evenodd" clip-rule="evenodd" d="M11.1994 0.246875C9.34674 0.878583 8.02902 2.30986 7.52753 4.23537C7.13861 5.72841 7.36593 6.83593 8.7768 10.3216C11.0573 15.956 11.8797 17.9426 12.0238 18.1652C12.2318 18.4867 12.8526 18.7575 13.3814 18.7575C14.1028 18.7575 14.5118 18.3131 14.8705 17.1393C15.0319 16.6113 15.8074 14.2077 16.5939 11.7978C18.4348 6.15771 18.5152 5.77493 18.1678 4.30218C17.5653 1.74617 15.3798 -0.00809046 12.8086 2.80607e-05C12.1788 0.00200284 11.7039 0.0748501 11.1994 0.246875ZM27.7681 0.204086C26.4289 0.637001 25.5284 1.31556 24.7947 2.4448C24.1692 3.4075 23.8848 4.36571 23.893 5.48266C23.9019 6.68749 23.9233 6.76593 26.2088 13.9303C26.5071 14.8656 26.9143 16.1633 27.1138 16.8142C27.4278 17.8395 27.5343 18.0502 27.9103 18.3898C28.3241 18.7637 28.3745 18.7797 28.994 18.7349C29.8413 18.6736 30.1376 18.3749 30.6587 17.057C30.8734 16.514 31.7221 14.4158 32.5449 12.3944C33.3676 10.373 34.1798 8.29946 34.3498 7.78656C35.1542 5.3599 34.7408 3.24722 33.1452 1.63075C32.0276 0.49855 30.819 -0.00732418 29.2566 0.00309824C28.7232 0.00660896 28.1318 0.0864777 27.7681 0.204086ZM3.85917 8.8502C3.15495 9.22091 3.15429 9.22234 2.14035 12.9429C0.252683 19.8692 0.00243499 20.9321 2.13791e-05 22.0352C-0.00359904 23.6714 0.452356 24.8087 1.55604 25.917C4.88408 29.2585 10.5951 27.0133 10.6682 22.3346C10.692 20.8135 10.616 20.5555 9.06358 16.8925C8.53928 15.6555 7.78798 13.8782 7.39402 12.9429C5.95144 9.51866 5.80213 9.2106 5.46894 8.9734C5.0233 8.65601 4.32917 8.60292 3.85917 8.8502ZM20.4724 8.81389C19.7943 9.12601 19.6907 9.36112 17.9954 14.4357C17.0904 17.1446 16.2284 19.823 16.0798 20.3877C15.5043 22.5758 15.8965 24.4074 17.2464 25.8346C17.7359 26.3521 17.8727 26.4899 18.5076 26.8389C20.1474 27.7402 21.8349 27.7722 23.4863 26.9332C24.2188 26.5612 25.3063 25.4821 25.7084 24.7285C26.3231 23.5766 26.4984 22.1166 26.1819 20.7872C25.9069 19.6322 22.517 9.61422 22.3035 9.32568C21.9099 8.79348 21.0431 8.55113 20.4724 8.81389ZM36.9289 8.86863C36.3601 9.12744 36.3238 9.17812 35.7784 10.4745C35.5246 11.0779 35.0716 12.1393 34.7719 12.8332C34.4721 13.5271 34.1846 14.1936 34.1328 14.3143C34.081 14.435 33.7819 15.1508 33.4683 15.9051C33.1545 16.6593 32.7106 17.6991 32.4818 18.2155C31.5815 20.2475 31.297 21.5683 31.4909 22.8172C31.8122 24.8884 33.0763 26.4829 35.0089 27.2548C35.8097 27.5746 37.3484 27.6115 38.2653 27.333C40.0454 26.7923 41.3051 25.5396 41.9239 23.6945C42.1318 23.0746 42.1561 22.8164 42.109 21.7197C42.0586 20.5426 41.9803 20.1858 40.9415 16.3988C38.8675 8.8378 38.9846 9.15936 38.1898 8.84132C37.6322 8.61817 37.4718 8.62168 36.9289 8.86863Z" fill="#00BC93"/>
</mask>
<g mask="url(#mask3_2375_4785)">
<path d="M6.17676 5.85982L9.9779 15.8378L12.6704 20.9062L15.6796 19.4807L18.6889 9.97786C18.9528 7.65494 19.5758 2.69231 19.9559 1.42515C20.431 -0.158792 16.9467 -1.4257 16.1548 -1.4257C15.3629 -1.4257 13.1455 -1.58408 10.9282 -1.4257C8.71085 -1.26732 6.96866 0.950012 6.6519 1.42515C6.39849 1.80527 6.22955 4.53998 6.17676 5.85982Z" fill="#00BC93"/>
</g>
</svg>
