<svg width="20" height="20" viewBox="0 0 20 20" fill="none" xmlns="http://www.w3.org/2000/svg">
<g clip-path="url(#clip0_4088_11247)">
<path d="M10.0003 0.200195C15.4126 0.200195 19.8002 4.58776 19.8002 10.0002C19.8002 15.413 15.4126 19.8006 10.0003 19.8006C4.58745 19.8006 0.199951 15.4129 0.199951 10.0002C0.199951 4.58783 4.58752 0.200195 10.0003 0.200195Z" fill="#D6D4D1"/>
<mask id="mask0_4088_11247" style="mask-type:luminance" maskUnits="userSpaceOnUse" x="0" y="0" width="20" height="20">
<path d="M10.0011 0.438477C15.2817 0.438477 19.5622 4.71936 19.5622 10C19.5622 15.2811 15.2817 19.5624 10.0011 19.5624C4.7201 19.5624 0.439209 15.2811 0.439209 10C0.439209 4.71943 4.7201 0.438477 10.0011 0.438477Z" fill="white"/>
</mask>
<g mask="url(#mask0_4088_11247)">
<path d="M-4.34277 0.441895H24.3418V19.5642H-4.34277V0.441895Z" fill="#006A4D"/>
<path d="M9.9983 4.62549C12.9694 4.62549 15.3773 7.03338 15.3773 10.0033C15.3773 12.9745 12.9694 15.3823 9.9983 15.3823C7.028 15.3823 4.62012 12.9745 4.62012 10.0033C4.62012 7.03338 7.028 4.62549 9.9983 4.62549Z" fill="#E53044"/>
</g>
</g>
<defs>
<clipPath id="clip0_4088_11247">
<rect width="20" height="20" fill="white"/>
</clipPath>
</defs>
</svg>
