<svg width="54" height="54" viewBox="0 0 54 54" fill="none" xmlns="http://www.w3.org/2000/svg">
<path d="M2 45.5529C2 49.1139 4.88652 52 8.44707 52H45.5527C49.1139 52 52 49.1135 52 45.5529V8.44727C52 4.88613 49.1135 2 45.5529 2H8.44727C4.88613 2 2 4.88652 2 8.44707V45.5529Z" fill="#563D7C"/>
<path d="M22.734 24.1168V17.0361H28.9666C29.5604 17.0361 30.1326 17.0855 30.6838 17.1846C31.235 17.2834 31.7227 17.46 32.1467 17.7145C32.5705 17.9689 32.9098 18.3223 33.1643 18.7744C33.4186 19.2268 33.5459 19.8063 33.5459 20.5127C33.5459 21.7848 33.1643 22.7035 32.401 23.2688C31.6379 23.8342 30.6627 24.1168 29.4754 24.1168H22.734ZM16.0771 11.8633V42.1367H30.7475C32.1043 42.1367 33.4258 41.9672 34.7119 41.6279C35.998 41.2887 37.1428 40.7658 38.1463 40.0592C39.1496 39.3525 39.9482 38.4408 40.5418 37.3244C41.1355 36.2078 41.4322 34.8863 41.4322 33.36C41.4322 31.466 40.9729 29.8479 40.0543 28.5053C39.1355 27.1625 37.7434 26.2227 35.8777 25.6855C37.2346 25.0355 38.2594 24.2016 38.952 23.184C39.6443 22.1664 39.9906 20.8945 39.9906 19.368C39.9906 17.9547 39.7574 16.7676 39.291 15.8064C38.8246 14.8455 38.1674 14.0752 37.3193 13.4957C36.4715 12.9162 35.4539 12.4992 34.2666 12.2449C33.0795 11.9904 31.765 11.8633 30.3234 11.8633H16.0771ZM22.734 36.9639V28.6535H29.9842C31.4258 28.6535 32.5848 28.9855 33.4611 29.65C34.3373 30.3143 34.7756 31.4236 34.7756 32.9783C34.7756 33.7699 34.6412 34.4199 34.3727 34.9287C34.1041 35.4375 33.7438 35.8404 33.2914 36.1371C32.8393 36.434 32.3162 36.6459 31.7227 36.7732C31.1289 36.9002 30.5072 36.9639 29.857 36.9639H22.734Z" fill="white"/>
</svg>
