<svg width="20" height="20" viewBox="0 0 20 20" fill="none" xmlns="http://www.w3.org/2000/svg">
<g clip-path="url(#clip0_4088_10034)">
<path d="M10 20C15.5228 20 20 15.5228 20 10C20 4.47715 15.5228 0 10 0C4.47715 0 0 4.47715 0 10C0 15.5228 4.47715 20 10 20Z" fill="#012169"/>
<path d="M17.7033 3.62695L9.998 8.25029L2.29267 3.62695C1.6518 4.40191 1.13171 5.26926 0.75 6.19962L7.08333 9.99962L0.75 13.7996C1.13141 14.7302 1.65128 15.5978 2.292 16.373L9.998 11.749L17.704 16.3723C18.3447 15.5971 18.8646 14.7295 19.246 13.799L12.9127 9.99895L19.246 6.19895C18.8642 5.26883 18.3441 4.40171 17.7033 3.62695Z" fill="white"/>
<path d="M1.9916 15.971L10.9709 10.583L18.5656 15.1397C18.7378 14.8533 18.8956 14.5585 19.0383 14.2563L10.9716 9.41632L18.5656 4.86032C18.3927 4.57321 18.2067 4.29588 18.0076 4.02832L9.0276 9.41632L1.43294 4.86032C1.26183 5.14565 1.10449 5.43988 0.960938 5.74299L9.0276 10.583L1.43294 15.1397C1.60516 15.4259 1.79161 15.7034 1.9916 15.971Z" fill="#C8102E"/>
<path d="M12.5 0.328004C10.862 -0.109335 9.13798 -0.109335 7.5 0.328004V7.5H0.328004C-0.109335 9.13798 -0.109335 10.862 0.328004 12.5H7.5V19.672C9.13798 20.1093 10.862 20.1093 12.5 19.672V12.5H19.672C20.1093 10.862 20.1093 9.13798 19.672 7.5H12.5V0.328004Z" fill="white"/>
<path d="M11.5 0.124667C11.0038 0.0455676 10.5024 0.00389452 10 0C9.49758 0.00389452 8.99617 0.0455676 8.5 0.124667V8.5H0.124667C0.0455676 8.99617 0.00389452 9.49758 0 10C0.00389452 10.5024 0.0455676 11.0038 0.124667 11.5H8.5V19.8753C8.99617 19.9544 9.49758 19.9961 10 20C10.5024 19.9961 11.0038 19.9544 11.5 19.8753V11.5H19.8753C19.9544 11.0038 19.9961 10.5024 20 10C19.9961 9.49758 19.9544 8.99617 19.8753 8.5H11.5V0.124667Z" fill="#C8102E"/>
</g>
<defs>
<clipPath id="clip0_4088_10034">
<rect width="20" height="20" fill="white"/>
</clipPath>
</defs>
</svg>
