<svg width="60" height="60" viewBox="0 0 60 60" fill="none" xmlns="http://www.w3.org/2000/svg">
<path fill-rule="evenodd" clip-rule="evenodd" d="M55.2155 24.3164L57.538 24.33C57.538 24.33 53.22 30.5327 52.8674 31.0382C52.7529 31.2019 52.5789 31.3785 52.4907 31.5973C52.2676 32.1474 52.0386 33.3542 52.0386 33.3542L49.9135 33.3655C49.9135 33.3655 50.2442 32.1076 50.2306 31.4376C50.2186 30.8523 49.9367 30.2677 49.7786 29.6807C49.6188 29.0864 49.4019 27.9236 49.4019 27.9236H51.5867L51.888 29.2015L55.2155 24.3164Z" fill="white"/>
<path fill-rule="evenodd" clip-rule="evenodd" d="M50.8176 25.625C51.2462 25.8989 51.5093 27.41 51.5093 27.41C51.5093 27.41 49.2665 27.445 48.046 27.445H46.9913L45.7106 33.3547H43.7519C43.7519 33.3547 44.9709 26.9324 45.2587 25.768C45.3519 25.391 45.8975 25.4557 46.8188 25.4557H48.2901C49.2402 25.4557 50.3506 25.3271 50.8176 25.625ZM41.699 28.5032C41.699 28.5032 41.7601 28.1239 41.4919 27.6846C41.2628 27.3101 41.0513 27.223 40.4485 27.203C38.7467 27.1463 38.7798 28.4832 38.7798 28.4832L41.699 28.5032ZM43.5447 26.9722C43.7941 27.9258 43.3187 30.1666 43.3187 30.1666C43.3187 30.1666 40.8364 30.1227 39.4767 30.1666C39.0539 30.1803 38.5479 30.1179 38.422 30.3264C38.2449 30.6186 38.4867 31.0684 38.6916 31.2584C38.9275 31.4771 39.3869 31.5021 39.552 31.5242C40.6556 31.6729 42.9654 31.5626 42.9654 31.5626L42.5653 33.4408C42.5653 33.4408 39.3012 33.6144 37.6686 33.2012C37.3463 33.1199 37.0441 32.9554 36.8399 32.7222C36.7842 32.6584 36.7358 32.5714 36.6831 32.4962C36.641 32.4362 36.5183 32.2391 36.4632 32.0832C36.0903 31.0299 36.5069 29.0119 36.9152 27.9306C36.9626 27.8053 37.0222 27.6463 37.0848 27.5112C37.1631 27.3429 37.2294 27.1527 37.2919 27.0521C37.334 26.9826 37.3862 26.9379 37.4299 26.8724C37.4803 26.7949 37.5389 26.7199 37.5933 26.6529C37.744 26.4676 37.915 26.3365 38.1207 26.1738C38.8008 25.6338 40.0318 25.2146 41.5107 25.375C42.0675 25.4357 42.9083 25.6465 43.3187 26.2535C43.4287 26.4156 43.483 26.7373 43.5447 26.9722ZM34.561 25.4484L36.4603 25.4365C36.4603 25.4365 35.4018 30.7592 34.8624 33.3547H32.6775C31.1506 33.3547 29.7908 33.5552 29.2122 32.3963C28.651 31.2711 29.1866 29.4208 29.4382 28.1637C29.616 27.274 29.9905 25.4556 29.9905 25.4556L31.9583 25.4365C31.9583 25.4365 31.4023 28.2676 31.1709 29.6811C31.0881 30.1875 30.9172 30.6642 31.0956 31.0386C31.2651 31.3949 31.5025 31.4204 32.2256 31.438C32.4547 31.4438 33.205 31.438 33.205 31.438L34.561 25.4484ZM25.6715 29.2817C25.8703 28.5327 26.1604 27.7206 26.1235 27.0456C26.0836 26.3238 25.5126 25.6665 25.1442 25.5284C24.0345 25.1131 22.9957 25.6937 22.5828 26.1672C22.0486 26.7806 21.8678 27.497 21.6787 28.4833C21.5379 29.2155 21.4226 29.9885 21.6787 30.5595C22.1321 31.5691 23.5463 31.3486 25.0688 31.3583C25.2948 30.7162 25.4816 29.995 25.6715 29.2817ZM28.3083 26.327C28.5251 27.9992 27.6928 29.8449 27.1194 31.45C27.7041 31.506 28.2164 31.4414 28.2533 31.4876C28.2917 31.5475 27.8614 33.4034 27.7115 33.4083C27.2475 33.421 25.71 33.4346 25.0688 33.4346C22.9767 33.4346 21.0195 33.5791 20.0215 32.4763C19.6161 32.0283 19.3359 31.2599 19.268 30.7193C19.155 29.8169 19.2966 28.8233 19.4941 28.0041C19.6726 27.2645 19.9015 26.5665 20.2474 25.9276C21.1266 24.3009 22.6558 23.0934 25.2194 23.3722C25.7167 23.4264 26.4308 23.6572 26.8769 23.9311C26.9077 23.9503 27.0156 24.0414 27.0403 24.0573C27.643 24.4639 28.1922 25.4341 28.3083 26.327ZM19.0518 25.458C18.9252 26.0689 18.7987 26.7615 18.6653 27.3652H16.5559C16.7194 26.696 16.8445 26.0307 17.008 25.4485C17.683 25.4485 18.3105 25.458 19.0519 25.458M16.4806 27.9242H18.5147C18.2487 29.4847 17.7221 32.0018 17.3093 33.754C17.0509 34.8506 16.8784 35.6507 16.1793 36.2296C16.1167 36.2816 16.0806 36.2569 16.0285 36.3095C15.8997 36.4398 15.3038 36.5908 14.974 36.6289C14.4376 36.6906 13.8311 36.637 13.1719 36.6226C13.3444 35.9542 13.5396 35.1516 13.6933 34.5525C15.3002 34.7587 15.3409 33.1486 15.652 31.5978C15.832 30.7017 16.3775 28.2835 16.4806 27.9242Z" fill="white"/>
<path fill-rule="evenodd" clip-rule="evenodd" d="M11.7344 31.9982L11.6908 32.1179C10.948 33.6513 9.63181 34.592 7.75447 34.6335C6.87684 34.6527 6.04064 34.4139 5.49437 34.1544C4.31553 33.5929 3.32394 32.5516 2.78245 31.4391C2.00566 29.8443 1.86557 27.6258 3.48073 25.9688C3.50567 25.9688 3.2848 26.3281 3.30974 26.3281L3.26528 26.4814C2.10141 30.3442 5.68727 33.6545 9.17304 33.2759C10.0108 33.1848 11.079 32.6985 11.7344 31.9982Z" fill="#21609B"/>
<path fill-rule="evenodd" clip-rule="evenodd" d="M9.62494 30.3992C10.5019 30.4056 11.4179 29.9711 11.9604 29.3611C11.4858 30.6381 10.1117 31.4589 8.26903 31.1979C6.72608 30.979 5.25633 29.3331 5.10496 27.684C4.99425 26.4837 5.38883 25.7674 6.03908 24.8984C5.81311 25.3529 5.72864 25.7034 5.70761 25.9269C5.46061 28.5233 7.6641 30.3856 9.62494 30.3992Z" fill="#21609B"/>
<path fill-rule="evenodd" clip-rule="evenodd" d="M11.8722 27.1758C11.736 27.5073 10.951 28.1333 10.6044 28.2115C9.23178 28.5215 8.35275 27.8315 7.89225 27.0464C7.82383 26.9291 7.69729 26.6089 7.67463 26.5274C7.49605 25.8837 7.57813 24.9102 8.11084 24.4062C7.95037 24.8854 7.92695 25.442 8.01141 25.8038C8.06259 26.0226 8.21851 26.4045 8.37454 26.6448C8.65841 27.0823 8.83851 27.1887 9.20316 27.4211C9.36743 27.5257 9.54363 27.6096 9.61974 27.6326C9.96552 27.7405 10.6955 28.0248 11.8722 27.1758Z" fill="#21609B"/>
</svg>
