<svg width="94" height="94" viewBox="0 0 94 94" fill="none" xmlns="http://www.w3.org/2000/svg">
<g clip-path="url(#clip0_2375_5350)">
<path d="M43.8668 77.5496V79.1163C43.8668 79.5318 43.7018 79.9303 43.408 80.2241C43.1142 80.5179 42.7157 80.6829 42.3002 80.6829H29.7668C29.3513 80.6829 28.9528 80.5179 28.659 80.2241C28.3652 79.9303 28.2002 79.5318 28.2002 79.1163V72.8496H39.1668C40.4133 72.8496 41.6088 73.3448 42.4902 74.2262C43.3717 75.1076 43.8668 76.3031 43.8668 77.5496ZM23.5002 88.5163V90.0829C23.5002 90.4984 23.3351 90.8969 23.0413 91.1907C22.7475 91.4846 22.349 91.6496 21.9335 91.6496H9.40016C8.98466 91.6496 8.58617 91.4846 8.29236 91.1907C7.99856 90.8969 7.8335 90.4984 7.8335 90.0829V83.8163H18.8002C20.0467 83.8163 21.2421 84.3115 22.1236 85.1929C23.005 86.0743 23.5002 87.2698 23.5002 88.5163Z" fill="#283593"/>
<path d="M39.1668 77.5496V79.1163C39.1668 79.5318 39.0018 79.9303 38.708 80.2241C38.4142 80.5179 38.0157 80.6829 37.6002 80.6829H29.7668C29.3513 80.6829 28.9528 80.5179 28.659 80.2241C28.3652 79.9303 28.2002 79.5318 28.2002 79.1163V72.8496H34.4668C35.7134 72.8496 36.9088 73.3448 37.7902 74.2262C38.6717 75.1076 39.1668 76.3031 39.1668 77.5496ZM18.8002 88.5163V90.0829C18.8002 90.4984 18.6351 90.8969 18.3413 91.1907C18.0475 91.4846 17.649 91.6496 17.2335 91.6496H9.40016C8.98466 91.6496 8.58617 91.4846 8.29236 91.1907C7.99856 90.8969 7.8335 90.4984 7.8335 90.0829V83.8163H14.1002C15.3467 83.8163 16.5421 84.3115 17.4236 85.1929C18.305 86.0743 18.8002 87.2698 18.8002 88.5163Z" fill="#3F51B5"/>
<path d="M94 88.5169V90.0836C94 90.4991 93.835 90.8976 93.5411 91.1914C93.2473 91.4852 92.8488 91.6503 92.4333 91.6503H23.5V90.0836C24.3413 90.0836 24.8019 90.1165 25.3017 89.5353C33.9967 79.4303 32.6431 80.9186 32.994 80.6836H62.2437L73.2793 88.2349C73.8495 88.6376 72.4019 88.5169 94 88.5169Z" fill="#549414"/>
<path d="M89.3 88.5169V90.0836C89.3 90.4991 89.135 90.8976 88.8411 91.1914C88.5473 91.4852 88.1488 91.6503 87.7333 91.6503H23.5V90.0836C24.3413 90.0836 24.8019 90.1165 25.3017 89.5353C33.9967 79.4303 32.6431 80.9186 32.994 80.6836H57.5437L66.6773 88.2349C67.2507 88.6391 65.6512 88.5169 89.3 88.5169Z" fill="#60A917"/>
<path d="M25.6466 17.3274C25.3651 17.0458 25.0303 16.8232 24.6618 16.6725C24.2933 16.5219 23.8984 16.4462 23.5003 16.4501H13.1916C12.1183 15.15 11.4499 13.5635 11.2693 11.8873C11.0887 10.2111 11.4038 8.51873 12.1756 7.01983C12.9474 5.52093 14.1419 4.28137 15.6112 3.45468C17.0805 2.62799 18.7601 2.2505 20.4419 2.36896C22.1236 2.48742 23.7337 3.09664 25.0726 4.12114C26.4115 5.14564 27.4205 6.54042 27.9745 8.13271C28.5285 9.725 28.6033 11.4448 28.1895 13.0792C27.7757 14.7135 26.8916 16.1906 25.6466 17.3274Z" fill="#DFC49C"/>
<path d="M21.761 16.4507H13.1913C12.2845 15.3437 11.6671 14.0287 11.3947 12.6239C11.1223 11.2191 11.2033 9.76865 11.6306 8.40297C12.0579 7.03729 12.8179 5.79924 13.8424 4.8002C14.8669 3.80116 16.1236 3.07247 17.4996 2.67969C18.8785 3.06892 20.1381 3.79686 21.1637 4.79723C22.1894 5.7976 22.9485 7.03862 23.3721 8.40732C23.7956 9.77602 23.8701 11.2289 23.5887 12.6337C23.3073 14.0386 22.679 15.3507 21.761 16.4507Z" fill="#FFE0B2"/>
<path d="M39.7154 28.685L34.7804 34.842L31.3337 31.3954V47.7827H24.644C25.2488 46.7518 25.067 47.7827 25.067 25.8494C25.4825 25.8494 25.881 25.6843 26.1748 25.3905C26.4687 25.0967 26.6337 24.6982 26.6337 24.2827V19.5827C27.6778 19.4383 28.741 19.5278 29.7462 19.8448C30.7515 20.1618 31.6737 20.6984 32.446 21.4157L39.7154 28.685Z" fill="#F44335"/>
<path d="M39.1668 57.1832V72.8499H28.2002L26.6335 60.3165C26.6335 59.901 26.4684 59.5025 26.1746 59.2087C25.8808 58.9149 25.4823 58.7499 25.0668 58.7499C21.6061 58.7499 21.6202 58.6825 21.1502 58.9692C20.9117 59.1039 20.7134 59.2998 20.5757 59.5366C20.438 59.7734 20.3659 60.0426 20.3668 60.3165L18.8002 83.8165H7.8335V49.3499H21.9335C22.483 49.3493 23.0226 49.2043 23.4983 48.9293C23.9741 48.6543 24.3691 48.2591 24.6438 47.7832H29.7668C32.2599 47.7832 34.6508 48.7736 36.4136 50.5364C38.1765 52.2992 39.1668 54.6902 39.1668 57.1832Z" fill="#37474F"/>
<path d="M34.4668 57.1832V72.8499H28.2002L26.6335 60.3165C26.6335 59.901 26.4684 59.5025 26.1746 59.2087C25.8808 58.9149 25.4823 58.7499 25.0668 58.7499C21.6061 58.7499 21.6202 58.6825 21.1502 58.9692C20.6708 58.6809 20.641 58.7499 17.2335 58.7499C16.818 58.7499 16.4195 58.9149 16.1257 59.2087C15.8319 59.5025 15.6668 59.901 15.6668 60.3165L14.1002 83.8165H7.8335V49.3499H17.2335C17.783 49.3493 18.3226 49.2043 18.7983 48.9293C19.2741 48.6543 19.6691 48.2591 19.9438 47.7832H25.0668C27.5599 47.7832 29.9508 48.7736 31.7136 50.5364C33.4765 52.2992 34.4668 54.6902 34.4668 57.1832Z" fill="#607D8B"/>
<path d="M25.0666 25.8496C25.0666 47.678 25.2484 46.7521 24.6436 47.7829C24.3689 48.2588 23.9739 48.654 23.4981 48.929C23.0224 49.204 22.4828 49.349 21.9333 49.3496H6.26663C5.43639 49.3471 4.64085 49.0162 4.05377 48.4291C3.46669 47.8421 3.13578 47.0465 3.1333 46.2163V25.8496H25.0666Z" fill="#D84315"/>
<path d="M20.3666 25.8496C20.3666 47.678 20.5484 46.7521 19.9436 47.7829C19.6689 48.2588 19.2739 48.654 18.7981 48.929C18.3224 49.204 17.7828 49.349 17.2333 49.3496H6.26663C5.43639 49.3471 4.64085 49.0162 4.05377 48.4291C3.46669 47.8421 3.13578 47.0465 3.1333 46.2163V25.8496H20.3666Z" fill="#FF5722"/>
<path d="M56.4 37.5371V77.5498C56.4 78.3808 56.0699 79.1778 55.4822 79.7654C54.8946 80.353 54.0976 80.6831 53.2666 80.6831C52.4356 80.6831 51.6386 80.353 51.051 79.7654C50.4634 79.1778 50.1333 78.3808 50.1333 77.5498V38.3831H53.8306C54.753 38.3679 55.649 38.0729 56.4 37.5371Z" fill="#7F6E5D"/>
<path d="M84.6002 18.0165C84.5973 19.4636 84.1935 20.8816 83.4337 22.1132C82.6739 23.3448 81.5878 24.3419 80.2959 24.9938C79.0039 25.6457 77.5566 25.927 76.1146 25.8065C74.6725 25.686 73.292 25.1684 72.1262 24.311C70.9604 23.4537 70.0548 22.2902 69.51 20.9496C68.9652 19.609 68.8023 18.1436 69.0396 16.7161C69.2768 15.2886 69.9049 13.9547 70.8541 12.8624C71.8033 11.77 73.0365 10.962 74.4169 10.5279C75.5914 10.1627 76.8352 10.0786 78.0481 10.2822C79.261 10.4858 80.4092 10.9715 81.4 11.7002C82.3909 12.4288 83.1967 13.38 83.7525 14.4771C84.3084 15.5743 84.5988 16.7866 84.6002 18.0165Z" fill="#FDD834"/>
<path d="M74.4169 25.5047C77.4453 25.5047 79.9003 22.1519 79.9003 18.016C79.9003 13.8801 77.4453 10.5273 74.4169 10.5273C71.3886 10.5273 68.9336 13.8801 68.9336 18.016C68.9336 22.1519 71.3886 25.5047 74.4169 25.5047Z" fill="#FFEB3A"/>
<path d="M89.7386 72.8508H56.3999V70.1091L65.5806 54.0508H81.6859L91.0859 70.5008C91.223 70.7383 91.2954 71.0075 91.2958 71.2818C91.2962 71.556 91.2247 71.8255 91.0883 72.0634C90.9519 72.3013 90.7555 72.4992 90.5186 72.6374C90.2817 72.7755 90.0128 72.8491 89.7386 72.8508Z" fill="#37474F"/>
<path d="M85.0386 72.8508H56.3999V70.1091L65.5806 54.0508H76.9859L86.3859 70.5008C86.523 70.7383 86.5954 71.0075 86.5958 71.2818C86.5962 71.556 86.5247 71.8255 86.3883 72.0634C86.2519 72.3013 86.0555 72.4992 85.8186 72.6374C85.5818 72.7755 85.3128 72.8491 85.0386 72.8508Z" fill="#607D8B"/>
<path d="M25.0666 25.8496V32.1163C25.0666 33.3628 24.5715 34.5583 23.69 35.4397C22.8086 36.3211 21.6132 36.8163 20.3666 36.8163H7.8333C6.58678 36.8163 5.39132 36.3211 4.5099 35.4397C3.62848 34.5583 3.1333 33.3628 3.1333 32.1163V25.8496H25.0666Z" fill="#F57C00"/>
<path d="M20.3666 25.8496V32.1163C20.3666 33.3628 19.8715 34.5583 18.99 35.4397C18.1086 36.3211 16.9132 36.8163 15.6666 36.8163H7.8333C6.58678 36.8163 5.39132 36.3211 4.5099 35.4397C3.62848 34.5583 3.1333 33.3628 3.1333 32.1163V25.8496H20.3666Z" fill="#FF9801"/>
<path d="M26.6336 19.5826V24.2826C26.6336 24.6981 26.4685 25.0965 26.1747 25.3904C25.8809 25.6842 25.4824 25.8492 25.0669 25.8492H3.13356C2.71806 25.8492 2.31957 25.6842 2.02576 25.3904C1.73195 25.0965 1.56689 24.6981 1.56689 24.2826V19.5826C1.56937 18.7523 1.90029 17.9568 2.48737 17.3697C3.07444 16.7826 3.86998 16.4517 4.70023 16.4492H23.5002C24.3305 16.4517 25.126 16.7826 25.7131 17.3697C26.3002 17.9568 26.6311 18.7523 26.6336 19.5826Z" fill="#D84315"/>
<path d="M21.9336 19.5826V24.2826C21.9336 24.6981 21.7685 25.0965 21.4747 25.3904C21.1809 25.6842 20.7824 25.8492 20.3669 25.8492H3.13356C2.71806 25.8492 2.31957 25.6842 2.02576 25.3904C1.73195 25.0965 1.56689 24.6981 1.56689 24.2826V19.5826C1.56937 18.7523 1.90029 17.9568 2.48737 17.3697C3.07444 16.7826 3.86998 16.4517 4.70023 16.4492H18.8002C19.6305 16.4517 20.426 16.7826 21.0131 17.3697C21.6002 17.9568 21.9311 18.7523 21.9336 19.5826Z" fill="#FF5722"/>
<path d="M50.1336 30.5499V38.3832H40.9216C37.9214 38.3832 36.5663 36.6285 34.7803 34.8425L39.7153 28.6855C41.0579 30.0282 41.3744 30.5499 42.2219 30.5499H50.1336Z" fill="#FFE0B2"/>
<path d="M57.951 34.8748C57.8131 35.8628 57.3174 36.7659 56.5579 37.4127C55.7984 38.0596 54.828 38.4052 53.8306 38.3841H50.1333V30.5508H54.05C54.5991 30.55 55.1423 30.6647 55.6443 30.8875C56.1463 31.1103 56.5958 31.4361 56.9636 31.8438C57.3315 32.2516 57.6095 32.7322 57.7796 33.2543C57.9497 33.7765 58.0081 34.3286 57.951 34.8748Z" fill="#DFC49C"/>
<path d="M81.6859 54.05H65.5806C72.4379 42.0305 70.9072 44.6892 72.2702 42.3313C72.4069 42.0902 72.605 41.8897 72.8445 41.7501C73.0839 41.6106 73.3561 41.5371 73.6332 41.5371C73.9104 41.5371 74.1825 41.6106 74.422 41.7501C74.6614 41.8897 74.8596 42.0902 74.9962 42.3313L81.6859 54.05Z" fill="#CFD8DC"/>
<path d="M76.9859 54.05H65.5806L71.2832 44.0547L76.9859 54.05Z" fill="#F5F5F5"/>
<path d="M15.6668 28.9832H12.5335C12.118 28.9832 11.7195 29.1483 11.4257 29.4421C11.1319 29.7359 10.9668 30.1344 10.9668 30.5499C10.9668 30.9654 11.1319 31.3639 11.4257 31.6577C11.7195 31.9515 12.118 32.1165 12.5335 32.1165H15.6668C16.0823 32.1165 16.4808 31.9515 16.7746 31.6577C17.0684 31.3639 17.2335 30.9654 17.2335 30.5499C17.2335 30.1344 17.0684 29.7359 16.7746 29.4421C16.4808 29.1483 16.0823 28.9832 15.6668 28.9832ZM67.3668 18.0165C67.3668 20.5096 68.3571 22.9005 70.12 24.6633C71.8828 26.4262 74.2738 27.4165 76.7668 27.4165C79.2598 27.4165 81.6508 26.4262 83.4136 24.6633C85.1764 22.9005 86.1668 20.5096 86.1668 18.0165C86.1668 15.5235 85.1764 13.1326 83.4136 11.3697C81.6508 9.60689 79.2598 8.61654 76.7668 8.61654C74.2738 8.61654 71.8828 9.60689 70.12 11.3697C68.3571 13.1326 67.3668 15.5235 67.3668 18.0165ZM76.7668 11.7499C78.4288 11.7499 80.0228 12.4101 81.198 13.5853C82.3732 14.7606 83.0335 16.3545 83.0335 18.0165C83.0335 19.6786 82.3732 21.2725 81.198 22.4477C80.0228 23.623 78.4288 24.2832 76.7668 24.2832C75.1048 24.2832 73.5108 23.623 72.3356 22.4477C71.1604 21.2725 70.5001 19.6786 70.5001 18.0165C70.5001 16.3545 71.1604 14.7606 72.3356 13.5853C73.5108 12.4101 75.1048 11.7499 76.7668 11.7499ZM78.3335 3.77397V2.34987C78.3335 1.93436 78.1684 1.53588 77.8746 1.24207C77.5808 0.948262 77.1823 0.783203 76.7668 0.783203C76.3513 0.783203 75.9528 0.948262 75.659 1.24207C75.3652 1.53588 75.2001 1.93436 75.2001 2.34987V3.77397C75.2001 4.18948 75.3652 4.58796 75.659 4.88177C75.9528 5.17558 76.3513 5.34064 76.7668 5.34064C77.1823 5.34064 77.5808 5.17558 77.8746 4.88177C78.1684 4.58796 78.3335 4.18948 78.3335 3.77397ZM75.2001 32.2591V33.6832C75.2001 34.0987 75.3652 34.4972 75.659 34.791C75.9528 35.0848 76.3513 35.2499 76.7668 35.2499C77.1823 35.2499 77.5808 35.0848 77.8746 34.791C78.1684 34.4972 78.3335 34.0987 78.3335 33.6832V32.2591C78.3335 31.8436 78.1684 31.4451 77.8746 31.1513C77.5808 30.8575 77.1823 30.6924 76.7668 30.6924C76.3513 30.6924 75.9528 30.8575 75.659 31.1513C75.3652 31.4451 75.2001 31.8436 75.2001 32.2591ZM92.4335 16.4499H91.0094C90.5939 16.4499 90.1954 16.6149 89.9016 16.9087C89.6077 17.2025 89.4427 17.601 89.4427 18.0165C89.4427 18.432 89.6077 18.8305 89.9016 19.1243C90.1954 19.4181 90.5939 19.5832 91.0094 19.5832H92.4335C92.849 19.5832 93.2475 19.4181 93.5413 19.1243C93.8351 18.8305 94.0001 18.432 94.0001 18.0165C94.0001 17.601 93.8351 17.2025 93.5413 16.9087C93.2475 16.6149 92.849 16.4499 92.4335 16.4499ZM62.5242 19.5832C62.9397 19.5832 63.3382 19.4181 63.632 19.1243C63.9258 18.8305 64.0909 18.432 64.0909 18.0165C64.0909 17.601 63.9258 17.2025 63.632 16.9087C63.3382 16.6149 62.9397 16.4499 62.5242 16.4499H61.1001C60.6846 16.4499 60.2861 16.6149 59.9923 16.9087C59.6985 17.2025 59.5335 17.601 59.5335 18.0165C59.5335 18.432 59.6985 18.8305 59.9923 19.1243C60.2861 19.4181 60.6846 19.5832 61.1001 19.5832H62.5242ZM88.9523 5.831C88.6585 5.5373 88.2601 5.3723 87.8447 5.3723C87.4293 5.3723 87.0309 5.5373 86.7371 5.831L85.7313 6.8368C85.5122 7.0559 85.3631 7.33503 85.3027 7.63889C85.2422 7.94275 85.2732 8.2577 85.3918 8.54393C85.5103 8.83016 85.7111 9.07481 85.9687 9.24697C86.2262 9.41912 86.5291 9.51104 86.8389 9.5111C87.6222 9.5111 87.8886 9.11004 88.9523 8.04627C89.246 7.75248 89.411 7.35406 89.411 6.93864C89.411 6.52321 89.246 6.1248 88.9523 5.831ZM64.5813 30.2021C64.8751 30.4958 65.2735 30.6608 65.6889 30.6608C66.1043 30.6608 66.5027 30.4958 66.7965 30.2021L67.8023 29.1963C68.0877 28.9008 68.2456 28.505 68.2421 28.0943C68.2385 27.6835 68.0737 27.2906 67.7832 27.0001C67.4928 26.7096 67.0998 26.5449 66.6891 26.5413C66.2783 26.5377 65.8825 26.6956 65.5871 26.981L64.5813 27.9868C64.2876 28.2806 64.1226 28.679 64.1226 29.0944C64.1226 29.5099 64.2876 29.9083 64.5813 30.2021ZM87.9465 26.981C87.6511 26.6956 87.2553 26.5377 86.8445 26.5413C86.4338 26.5449 86.0408 26.7096 85.7503 27.0001C85.4599 27.2906 85.2951 27.6835 85.2915 28.0943C85.288 28.505 85.4459 28.9008 85.7313 29.1963C86.6337 30.0987 87.0097 30.6611 87.8447 30.6611C88.1545 30.661 88.4573 30.5691 88.7149 30.397C88.9725 30.2248 89.1732 29.9802 89.2918 29.6939C89.4103 29.4077 89.4414 29.0927 89.3809 28.7889C89.3205 28.485 89.1714 28.2059 88.9523 27.9868L87.9465 26.981ZM66.7965 5.831C66.5011 5.54562 66.1053 5.38771 65.6945 5.39128C65.2838 5.39485 64.8908 5.55961 64.6003 5.85009C64.3099 6.14056 64.1451 6.5335 64.1415 6.94427C64.138 7.35505 64.2959 7.75079 64.5813 8.04627C65.4837 8.94867 65.8597 9.5111 66.6947 9.5111C67.0045 9.51104 67.3073 9.41912 67.5649 9.24697C67.8225 9.07481 68.0232 8.83016 68.1418 8.54393C68.2603 8.2577 68.2914 7.94275 68.2309 7.63889C68.1705 7.33503 68.0214 7.0559 67.8023 6.8368L66.7965 5.831Z" fill="#F2F2F2"/>
<path d="M92.4333 86.95C73.0991 86.95 74.3133 87.0738 73.7305 86.6618L64.39 79.9846C63.5942 79.418 62.641 79.1145 61.664 79.1167H57.6737C58.0591 78.0373 57.962 78.2347 57.962 70.5329L66.4862 55.6167H80.7836L91.0735 73.6334C91.1728 73.8171 91.3078 73.9791 91.4706 74.1099C91.6335 74.2407 91.8208 74.3376 92.0217 74.395C92.2225 74.4523 92.4328 74.4689 92.6401 74.4438C92.8475 74.4187 93.0477 74.3524 93.229 74.2487C93.4104 74.1451 93.5691 74.0063 93.696 73.8404C93.8229 73.6745 93.9154 73.4849 93.968 73.2828C94.0205 73.0807 94.0322 72.8701 94.0021 72.6634C93.9721 72.4567 93.9011 72.2581 93.7932 72.0792L76.3499 41.5433C76.075 41.0646 75.6783 40.667 75.2002 40.3908C74.7222 40.1146 74.1796 39.9696 73.6275 39.9706C73.0754 39.9716 72.5333 40.1184 72.0562 40.3962C71.579 40.674 71.1838 41.073 70.9105 41.5527L57.9667 64.2161V38.2095C58.7174 37.4438 59.2244 36.4728 59.4238 35.4192C59.6232 34.3656 59.506 33.2765 59.087 32.2895C58.6679 31.3024 57.9659 30.4616 57.0694 29.8732C56.173 29.2848 55.1223 28.9752 54.05 28.9834H42.2373L33.558 20.304C32.8154 19.5676 31.9338 18.9862 30.9645 18.5935C29.9952 18.2009 28.9575 18.0048 27.9117 18.0167C27.8429 17.8265 27.7623 17.6407 27.6705 17.4605C28.825 16.0745 29.5901 14.4063 29.8871 12.6271C30.1841 10.8478 30.0025 9.02158 29.3607 7.3357C28.719 5.64983 27.6403 4.16503 26.2354 3.03364C24.8304 1.90225 23.1497 1.165 21.3658 0.897544C19.5818 0.630083 17.7589 0.842035 16.0839 1.51166C14.4089 2.18128 12.9422 3.28446 11.8343 4.70801C10.7264 6.13157 10.0171 7.82424 9.7793 9.61238C9.54149 11.4005 9.78367 13.2197 10.481 14.8834H4.7C3.45348 14.8834 2.25802 15.3785 1.3766 16.26C0.495177 17.1414 0 18.3369 0 19.5834L0 24.2834C0.00165118 24.8309 0.147272 25.3684 0.422252 25.842C0.697233 26.3155 1.0919 26.7083 1.56667 26.9812V46.2167C1.56667 47.4632 2.06184 48.6587 2.94326 49.5401C3.82469 50.4215 5.02015 50.9167 6.26667 50.9167V90.0834H1.56667C1.15116 90.0834 0.752673 90.2484 0.458866 90.5422C0.165059 90.836 0 91.2345 0 91.65C0 92.0655 0.165059 92.464 0.458866 92.7578C0.752673 93.0517 1.15116 93.2167 1.56667 93.2167H22.0587C22.737 93.2163 23.4072 93.0691 24.0233 92.7851C24.6393 92.5012 25.1866 92.0872 25.6275 91.5717L33.1475 82.7984C33.4483 82.4537 33.8839 82.2547 34.3413 82.25C64.0062 82.25 61.9648 82.1106 62.5695 82.5383L71.91 89.2154C72.7058 89.7821 73.659 90.0856 74.636 90.0834H92.4333C92.8488 90.0834 93.2473 89.9183 93.5411 89.6245C93.8349 89.3307 94 88.9322 94 88.5167C94 88.1012 93.8349 87.7027 93.5411 87.4089C93.2473 87.1151 92.8488 86.95 92.4333 86.95ZM73.6333 43.1084L78.9929 52.4834H68.2785L73.6333 43.1084ZM52.1449 78.6357C52.0017 78.4939 51.8885 78.3246 51.8121 78.1381C51.7357 77.9516 51.6975 77.7516 51.7 77.55V39.95C52.745 40.0174 53.7946 39.9861 54.8333 39.8576V77.55C54.8318 77.8609 54.7377 78.1643 54.5632 78.4215C54.3887 78.6788 54.1416 78.8783 53.8534 78.9947C53.5651 79.1112 53.2487 79.1392 52.9445 79.0752C52.6403 79.0113 52.3619 78.8583 52.1449 78.6357ZM55.7937 32.8891C56.1027 33.2442 56.2992 33.6831 56.3583 34.1501C56.4174 34.6171 56.3363 35.0912 56.1255 35.512C55.9146 35.9329 55.5835 36.2816 55.174 36.5139C54.7646 36.7462 54.2954 36.8516 53.826 36.8167H51.7V32.1167C54.2333 32.1167 54.9399 31.9491 55.7937 32.8891ZM48.5667 32.1167V36.8167H40.9213C40.1352 36.7877 39.3652 36.5853 38.6665 36.224C37.9677 35.8627 37.3574 35.3515 36.8793 34.7268L39.8435 31.0294L40.0174 31.2033C40.6033 31.7861 41.396 32.1136 42.2217 32.1167H48.5667ZM37.6141 28.8001L34.6515 32.499L32.4425 30.29C32.2236 30.0705 31.9445 29.9209 31.6405 29.8601C31.3365 29.7993 31.0214 29.8301 30.7349 29.9485C30.4484 30.0669 30.2035 30.2677 30.0311 30.5254C29.8588 30.783 29.7667 31.086 29.7667 31.396V46.2167H26.6333V26.9812C27.1081 26.7083 27.5028 26.3155 27.7778 25.842C28.0527 25.3684 28.1983 24.8309 28.2 24.2834V21.1688C29.3766 21.2158 30.4936 21.6984 31.3333 22.524L37.6141 28.8001ZM7.83333 35.25C7.00232 35.25 6.20535 34.9199 5.61773 34.3323C5.03012 33.7447 4.7 32.9477 4.7 32.1167V27.4167H23.5V32.1167C23.5 32.9477 23.1699 33.7447 22.5823 34.3323C21.9947 34.9199 21.1977 35.25 20.3667 35.25H7.83333ZM19.8497 3.9167C21.1677 3.91751 22.459 4.28876 23.5761 4.98811C24.6933 5.68746 25.5914 6.68674 26.168 7.87195C26.7446 9.05717 26.9765 10.3806 26.8372 11.6912C26.6978 13.0019 26.1929 14.2469 25.38 15.2844C24.1705 14.7502 24.4196 14.8834 14.0091 14.8834C13.297 13.8242 12.8862 12.5913 12.8207 11.3166C12.7553 10.042 13.0377 8.77348 13.6376 7.64693C14.2376 6.52039 15.1326 5.57817 16.2268 4.92111C17.321 4.26404 18.5733 3.91685 19.8497 3.9167ZM3.13333 19.5834C3.13333 19.1679 3.29839 18.7694 3.5922 18.4756C3.88601 18.1818 4.28449 18.0167 4.7 18.0167H23.5C23.9155 18.0167 24.314 18.1818 24.6078 18.4756C24.9016 18.7694 25.0667 19.1679 25.0667 19.5834V24.2834H3.13333V19.5834ZM4.7 46.2167V37.5123C5.64783 38.0763 6.7304 38.3771 7.83333 38.3834V41.5167C7.83333 41.9322 7.99839 42.3307 8.2922 42.6245C8.58601 42.9183 8.98449 43.0834 9.4 43.0834C9.81551 43.0834 10.214 42.9183 10.5078 42.6245C10.8016 42.3307 10.9667 41.9322 10.9667 41.5167V38.3834H17.2333V41.5167C17.2333 41.9322 17.3984 42.3307 17.6922 42.6245C17.986 42.9183 18.3845 43.0834 18.8 43.0834C19.2155 43.0834 19.614 42.9183 19.9078 42.6245C20.2016 42.3307 20.3667 41.9322 20.3667 41.5167V38.3834C21.47 38.3769 22.5516 38.0762 23.5 37.5123C23.5 46.9013 23.5877 46.4893 23.2916 46.9922C23.155 47.2321 22.9574 47.4315 22.7189 47.5705C22.4804 47.7094 22.2094 47.7828 21.9333 47.7834H6.26667C5.85116 47.7834 5.45267 47.6183 5.15887 47.3245C4.86506 47.0307 4.7 46.6322 4.7 46.2167ZM24.1 50.3684C24.5897 50.092 25.0389 49.7493 25.4348 49.35H29.7667C31.8434 49.3525 33.8344 50.1786 35.3029 51.6471C36.7714 53.1156 37.5975 55.1066 37.6 57.1834V71.2834H29.5834L28.2 60.2039C28.1708 59.3926 27.8278 58.6243 27.2433 58.0609C26.6588 57.4974 25.8785 57.1828 25.0667 57.1834H21.9333C21.1183 57.1773 20.3334 57.4914 19.7475 58.058C19.1615 58.6246 18.8213 59.3985 18.8 60.2133L17.3336 82.25H9.4V50.9167C23.1632 50.9167 22.7558 51.0734 24.1 50.3684ZM9.4 90.0834V85.3834H18.8C19.631 85.3834 20.428 85.7135 21.0156 86.3011C21.6032 86.8887 21.9333 87.6857 21.9333 88.5167V90.0834H9.4ZM24.9664 87.5313C24.7761 86.3488 24.2499 85.2459 23.4505 84.354C22.6511 83.4622 21.6122 82.8188 20.4575 82.5007L21.9333 60.3167H25.0667C25.0667 60.3809 25.0714 60.4467 25.0792 60.511C26.8997 75.4366 26.6333 71.3476 26.6333 79.1167C26.6371 79.902 26.9357 80.6572 27.4698 81.2328C28.004 81.8085 28.7348 82.1626 29.5176 82.225L24.9664 87.5313ZM29.7667 79.1167V74.4167H39.1667C39.9977 74.4167 40.7947 74.7468 41.3823 75.3344C41.9699 75.9221 42.3 76.719 42.3 77.55V79.1167H29.7667ZM40.7333 71.5058V57.1834C40.7267 54.8278 39.9611 52.5371 38.5501 50.6509C37.1391 48.7646 35.1578 47.3833 32.9 46.7118V35.178L35.38 37.658C36.8534 39.1217 38.8445 39.9453 40.9213 39.95H48.5667C48.5667 81.0907 48.446 77.9683 48.8502 79.1167H45.4333V77.55C45.4281 76.1648 44.9641 74.8203 44.1137 73.7267C43.2634 72.6331 42.0746 71.8521 40.7333 71.5058Z" fill="#F2F2F2"/>
</g>
<defs>
<clipPath id="clip0_2375_5350">
<rect width="94" height="94" fill="white"/>
</clipPath>
</defs>
</svg>
