<svg width="95" height="94" viewBox="0 0 95 94" fill="none" xmlns="http://www.w3.org/2000/svg">
<path d="M37.2188 55.8125H57.7812V63.1562H37.2188V55.8125Z" fill="#606669"/>
<path d="M4.90625 4.40625H90.0938V57.2812H4.90625V4.40625Z" fill="#9AA3A8"/>
<path d="M47.5 41.125C54.8005 41.125 60.7188 35.2068 60.7188 27.9062C60.7188 20.6057 54.8005 14.6875 47.5 14.6875C40.1995 14.6875 34.2812 20.6057 34.2812 27.9062C34.2812 35.2068 40.1995 41.125 47.5 41.125Z" fill="#D5D8DA"/>
<path d="M44.5625 23.5V32.3125L53.375 27.9062L44.5625 23.5Z" fill="#EB423F"/>
<path d="M35.75 89.5938H15.1875L12.25 49.9375H38.6875L35.75 89.5938Z" fill="#2D85CC"/>
<path d="M12.25 45.5312H38.6875L40.1562 51.4062H10.7812L12.25 45.5312Z" fill="#DADCDE"/>
<path d="M82.75 57.2812C82.1763 57.2812 81.7839 57.0819 81.2813 57.2812C80.7725 55.4101 78.9074 54.3438 76.875 54.3438C75.7463 54.3438 74.7169 55.1148 73.9375 55.8125C73.1578 55.1148 72.1293 54.3438 71 54.3438C70.4263 54.3438 70.0339 54.1444 69.5313 54.3438C69.0225 52.4726 67.1574 51.4062 65.125 51.4062C63.0926 51.4062 61.2275 52.5612 60.7188 54.4324C60.2161 54.2329 59.8237 54.4324 59.25 54.4324C58.1207 54.4324 57.0911 55.2026 56.3114 55.9012C55.5322 55.2035 54.5037 54.4324 53.375 54.4324C51.3426 54.4324 49.4775 55.4101 48.9688 57.2812C48.4661 57.0819 48.0737 57.2812 47.5 57.2812C46.3314 57.2812 45.2106 57.7455 44.3843 58.5718C43.558 59.3981 43.0938 60.5189 43.0938 61.6875V66.0938C43.0938 78.2612 52.9575 89.5938 65.125 89.5938C77.2925 89.5938 87.1563 78.2612 87.1563 66.0938V63.1562C87.45 60.4978 85.349 57.2812 82.75 57.2812Z" fill="#FFD33A"/>
<path d="M87.1562 66.0938C87.1562 78.2612 77.2925 89.5938 65.125 89.5938C52.9575 89.5938 43.0938 78.2612 43.0938 66.0938H87.1562Z" fill="#EB423F"/>
<path d="M68.0625 49.9375C68.0625 49.1584 67.753 48.4113 67.2021 47.8604C66.6512 47.3095 65.9041 47 65.125 47C64.3459 47 63.5988 47.3095 63.0479 47.8604C62.497 48.4113 62.1875 49.1584 62.1875 49.9375C61.4084 49.9375 60.6613 50.247 60.1104 50.7979C59.5595 51.3488 59.25 52.0959 59.25 52.875C59.25 53.6541 59.5595 54.4012 60.1104 54.9521C60.6613 55.503 61.4084 55.8125 62.1875 55.8125C62.0628 55.8287 62.316 55.8125 62.1875 55.8125C62.6916 56.7049 64.0269 57.2812 65.125 57.2812C66.2231 57.2812 67.5584 56.7049 68.0625 55.8125C67.934 55.8125 68.1872 55.8287 68.0625 55.8125C68.8416 55.8125 69.5887 55.503 70.1396 54.9521C70.6905 54.4012 71 53.6541 71 52.875C71 52.0959 70.6905 51.3488 70.1396 50.7979C69.5887 50.247 68.8416 49.9375 68.0625 49.9375ZM76.875 82.25C76.875 81.4709 76.5655 80.7238 76.0146 80.1729C75.4637 79.622 74.7166 79.3125 73.9375 79.3125C73.1584 79.3125 72.4113 79.622 71.8604 80.1729C71.3095 80.7238 71 81.4709 71 82.25C70.2209 82.25 69.4738 82.5595 68.9229 83.1104C68.372 83.6613 68.0625 84.4084 68.0625 85.1875C68.0625 85.9666 68.372 86.7137 68.9229 87.2646C69.4738 87.8155 70.2209 88.125 71 88.125C70.8753 88.1412 71.1285 88.125 71 88.125C71.5041 89.0174 72.8394 89.5938 73.9375 89.5938C75.0356 89.5938 76.3709 89.0174 76.875 88.125C76.7465 88.125 76.9997 88.1412 76.875 88.125C77.6541 88.125 78.4012 87.8155 78.9521 87.2646C79.503 86.7137 79.8125 85.9666 79.8125 85.1875C79.8125 84.4084 79.503 83.6613 78.9521 83.1104C78.4012 82.5595 77.6541 82.25 76.875 82.25ZM81.2812 39.6562C81.2812 38.8772 80.9718 38.13 80.4209 37.5791C79.87 37.0282 79.1228 36.7188 78.3438 36.7188C77.5647 36.7188 76.8175 37.0282 76.2666 37.5791C75.7157 38.13 75.4062 38.8772 75.4062 39.6562C74.6272 39.6562 73.88 39.9657 73.3291 40.5166C72.7782 41.0675 72.4688 41.8147 72.4688 42.5938C72.4688 43.3728 72.7782 44.12 73.3291 44.6709C73.88 45.2218 74.6272 45.5312 75.4062 45.5312C75.2816 45.5474 75.5348 45.5312 75.4062 45.5312C75.9104 46.4237 77.2457 47 78.3438 47C79.4418 47 80.7771 46.4237 81.2812 45.5312C81.1527 45.5312 81.4059 45.5474 81.2812 45.5312C82.0603 45.5312 82.8075 45.2218 83.3584 44.6709C83.9093 44.12 84.2188 43.3728 84.2188 42.5938C84.2188 41.8147 83.9093 41.0675 83.3584 40.5166C82.8075 39.9657 82.0603 39.6562 81.2812 39.6562Z" fill="#FFE76C"/>
<path d="M25.4688 71.9688C28.7134 71.9688 31.3438 69.3384 31.3438 66.0938C31.3438 62.8491 28.7134 60.2188 25.4688 60.2188C22.2241 60.2188 19.5938 62.8491 19.5938 66.0938C19.5938 69.3384 22.2241 71.9688 25.4688 71.9688Z" fill="#395A8D"/>
<path d="M91.5625 57.2812V4.40625C91.5625 4.01671 91.4078 3.64313 91.1323 3.36769C90.8569 3.09224 90.4833 2.9375 90.0938 2.9375H4.90625C4.51671 2.9375 4.14313 3.09224 3.86769 3.36769C3.59224 3.64313 3.4375 4.01671 3.4375 4.40625V57.2812C3.4375 57.6708 3.59224 58.0444 3.86769 58.3198C4.14313 58.5953 4.51671 58.75 4.90625 58.75H11.4299L11.6476 61.6875H7.84375C7.45421 61.6875 7.08063 61.8422 6.80519 62.1177C6.52974 62.3931 6.375 62.7667 6.375 63.1562C6.375 63.5458 6.52974 63.9194 6.80519 64.1948C7.08063 64.4703 7.45421 64.625 7.84375 64.625H11.8645L13.6051 88.125H4.90625C4.51671 88.125 4.14313 88.2797 3.86769 88.5552C3.59224 88.8306 3.4375 89.2042 3.4375 89.5938C3.4375 89.9833 3.59224 90.3569 3.86769 90.6323C4.14313 90.9078 4.51671 91.0625 4.90625 91.0625H90.0938C90.4833 91.0625 90.8569 90.9078 91.1323 90.6323C91.4078 90.3569 91.5625 89.9833 91.5625 89.5938C91.5625 89.2042 91.4078 88.8306 91.1323 88.5552C90.8569 88.2797 90.4833 88.125 90.0938 88.125H80.1518C80.639 87.5851 80.9843 86.9324 81.1565 86.2258C81.3287 85.5192 81.3225 84.7809 81.1384 84.0773C85.8413 79.2974 88.625 72.6503 88.625 66.0938V61.6875C88.6257 60.6557 88.353 59.6421 87.8346 58.75H90.0938C90.4833 58.75 90.8569 58.5953 91.1323 58.3198C91.4078 58.0444 91.5625 57.6708 91.5625 57.2812ZM37.5408 47L38.2751 49.9375H12.6624L13.3967 47H37.5408ZM78.1545 80.9705C77.8803 80.0656 77.3223 79.2729 76.5629 78.7095C75.8035 78.1461 74.8831 77.8419 73.9375 77.8419C72.9919 77.8419 72.0715 78.1461 71.3121 78.7095C70.5527 79.2729 69.9947 80.0656 69.7205 80.9705C69.0296 81.1794 68.4006 81.555 67.8891 82.0644C67.3776 82.5737 66.9993 83.201 66.7875 83.8911C66.5757 84.5811 66.5369 85.3127 66.6745 86.0213C66.8122 86.7299 67.1221 87.3937 67.5769 87.9543C66.7644 88.0668 65.9452 88.1239 65.125 88.125C59.7398 88.125 54.592 85.742 50.6297 81.4146C47.1325 77.5996 45.0148 72.7225 44.615 67.5625H85.6333C85.27 72.6897 83.0296 77.7703 79.4385 81.6074C79.0483 81.3263 78.6145 81.1111 78.1545 80.9705ZM41.625 61.6875H39.2899L39.5076 58.75H42.4154C41.897 59.6421 41.6243 60.6557 41.625 61.6875ZM16.5516 88.125L13.9405 52.875H36.997L34.3859 88.125H16.5516ZM37.3317 88.125L39.073 64.625H41.625V66.0938C41.625 72.3451 44.1175 78.6516 48.4633 83.3986C50.1588 85.2639 52.1305 86.858 54.3097 88.125H37.3317ZM72.3808 87.5336C72.2669 87.2703 72.0776 87.0466 71.8369 86.8905C71.5961 86.7344 71.3146 86.653 71.0277 86.6564H70.9921C70.7992 86.6559 70.6083 86.6174 70.4303 86.5431C70.2523 86.4688 70.0907 86.3602 69.9546 86.2234C69.6799 85.9472 69.5262 85.5732 69.5272 85.1836C69.5283 84.7941 69.684 84.4209 69.9602 84.1462C70.2364 83.8715 70.6104 83.7177 71 83.7188C71.3895 83.7188 71.7631 83.564 72.0386 83.2886C72.314 83.0131 72.4688 82.6395 72.4688 82.25C72.4688 81.8605 72.6235 81.4869 72.8989 81.2114C73.1744 80.936 73.548 80.7812 73.9375 80.7812C74.327 80.7812 74.7006 80.936 74.9761 81.2114C75.2515 81.4869 75.4062 81.8605 75.4062 82.25C75.4062 82.6395 75.561 83.0131 75.8364 83.2886C76.1119 83.564 76.4855 83.7188 76.875 83.7188C77.0679 83.7182 77.259 83.7557 77.4374 83.829C77.6158 83.9024 77.778 84.0101 77.9147 84.1461C78.0515 84.2822 78.1601 84.4438 78.2344 84.6218C78.3087 84.7998 78.3472 84.9907 78.3477 85.1835C78.3482 85.3764 78.3107 85.5675 78.2374 85.7459C78.1641 85.9243 78.0563 86.0865 77.9203 86.2233C77.7843 86.36 77.6227 86.4687 77.4447 86.5429C77.2667 86.6172 77.0758 86.6557 76.8829 86.6562H76.8473C76.5604 86.6528 76.2789 86.7342 76.0381 86.8903C75.7974 87.0464 75.6081 87.2702 75.4942 87.5335C75.0651 87.9144 74.5113 88.1248 73.9375 88.1248C73.3637 88.1248 72.8099 87.9146 72.3808 87.5336ZM85.6875 61.6875V64.625H44.5625V61.6875C44.5634 60.9087 44.8732 60.1621 45.4239 59.6114C45.9746 59.0607 46.7212 58.7509 47.5 58.75H48.9688C49.2911 58.75 49.6046 58.644 49.8607 58.4482C50.1168 58.2525 50.3015 57.9779 50.3861 57.6668C50.7402 56.3633 52.2176 55.9012 53.375 55.9012C54.1094 55.9012 55.0294 56.7248 55.3314 56.9952C55.6008 57.2365 55.9497 57.3699 56.3113 57.3699C56.6729 57.3699 57.0219 57.2365 57.2912 56.9952C57.5624 56.7527 58.3298 56.067 59.017 55.9278C59.6597 56.5984 60.4982 57.0482 61.4124 57.213C62.3672 58.2249 63.9008 58.75 65.125 58.75C66.3492 58.75 67.8828 58.2249 68.8376 57.213C69.7854 57.042 70.6509 56.5647 71.3013 55.8544C71.9697 56.0231 72.6955 56.6726 72.9575 56.9073C73.2269 57.1486 73.5758 57.282 73.9375 57.282C74.2992 57.282 74.6481 57.1486 74.9175 56.9073C75.2195 56.6359 76.1388 55.8125 76.875 55.8125C78.1117 55.8125 79.5158 56.3859 79.8639 57.6668C79.9485 57.9779 80.1332 58.2525 80.3893 58.4482C80.6454 58.644 80.9589 58.75 81.2812 58.75H82.75C83.5288 58.7509 84.2754 59.0607 84.8261 59.6114C85.3768 60.1621 85.6866 60.9087 85.6875 61.6875ZM60.7188 52.875C60.7192 52.4856 60.8741 52.1123 61.1494 51.8369C61.4248 51.5616 61.7981 51.4067 62.1875 51.4062C62.577 51.4062 62.9506 51.2515 63.2261 50.9761C63.5015 50.7006 63.6562 50.327 63.6562 49.9375C63.6562 49.548 63.811 49.1744 64.0864 48.8989C64.3619 48.6235 64.7355 48.4688 65.125 48.4688C65.5145 48.4688 65.8881 48.6235 66.1636 48.8989C66.439 49.1744 66.5938 49.548 66.5938 49.9375C66.5938 50.327 66.7485 50.7006 67.0239 50.9761C67.2994 51.2515 67.673 51.4062 68.0625 51.4062C68.452 51.4052 68.826 51.5589 69.1022 51.8336C69.3784 52.1083 69.5341 52.4815 69.5352 52.8711C69.5362 53.2606 69.3825 53.6346 69.1078 53.9108C68.8331 54.187 68.4599 54.3427 68.0704 54.3438H68.0348C67.7479 54.3403 67.4664 54.4217 67.2256 54.5778C66.9849 54.7339 66.7956 54.9577 66.6817 55.221C66.2526 55.6019 65.6988 55.8123 65.125 55.8123C64.5512 55.8123 63.9974 55.6019 63.5683 55.221C63.4544 54.9577 63.2651 54.7339 63.0244 54.5778C62.7836 54.4217 62.5021 54.3403 62.2152 54.3438H62.1796C61.7916 54.3412 61.4203 54.1854 61.1466 53.9103C60.873 53.6352 60.7192 53.263 60.7188 52.875ZM88.625 55.8125H82.264C81.2886 54.0181 79.2547 52.875 76.875 52.875C75.7367 52.875 74.7378 53.3659 73.9375 53.9292C73.4814 53.6011 72.9834 53.3356 72.4568 53.1397C72.4621 53.0518 72.4688 52.9644 72.4688 52.8752C72.4676 51.9302 72.1632 51.0105 71.6003 50.2514C71.0375 49.4923 70.2459 48.9339 69.342 48.6582C69.0678 47.7533 68.5098 46.9605 67.7504 46.3971C66.991 45.8337 66.0706 45.5296 65.125 45.5296C64.1794 45.5296 63.259 45.8337 62.4996 46.3971C61.7402 46.9605 61.1822 47.7533 60.908 48.6582C60.0042 48.9338 59.2126 49.4923 58.6497 50.2513C58.0869 51.0104 57.7824 51.93 57.7812 52.875C57.7812 52.9934 57.7879 53.1102 57.797 53.2264C57.269 53.4225 56.7696 53.6887 56.3125 54.0179C55.5124 53.4544 54.5133 52.9635 53.375 52.9635C50.9516 52.9635 48.9504 54.0507 47.9871 55.8125H39.7254L39.9429 52.875H40.1562C40.3794 52.875 40.5997 52.8241 40.8003 52.7262C41.0009 52.6284 41.1765 52.4861 41.3139 52.3101C41.4512 52.1342 41.5467 51.9293 41.593 51.711C41.6393 51.4926 41.6352 51.2666 41.5811 51.0501L40.1124 45.1751C40.0329 44.8573 39.8496 44.5752 39.5914 44.3736C39.3332 44.172 39.0151 44.0625 38.6875 44.0625H26.7653L25.4574 33.5991C25.4274 33.3592 25.3386 33.1304 25.199 32.933C25.0594 32.7356 24.8731 32.5758 24.6569 32.4676L18.7819 29.5301C18.4339 29.3595 18.0326 29.3333 17.6654 29.4573C17.2982 29.5813 16.9949 29.8453 16.8216 30.192C16.6483 30.5386 16.6189 30.9397 16.74 31.3078C16.8611 31.676 17.1228 31.9813 17.4681 32.1574L22.6401 34.7433L23.805 44.0625H12.25C11.9224 44.0625 11.6043 44.172 11.3461 44.3736C11.0879 44.5752 10.9046 44.8573 10.8251 45.1751L9.35638 51.0501C9.30225 51.2666 9.29819 51.4926 9.3445 51.711C9.3908 51.9293 9.48626 52.1342 9.62362 52.3101C9.76097 52.4861 9.93662 52.6284 10.1372 52.7262C10.3378 52.8241 10.5581 52.875 10.7812 52.875H10.9948L11.2123 55.8125H6.375V5.875H88.625V55.8125Z" fill="#F2F2F2"/>
<path d="M47.5 42.5938C50.4049 42.5938 53.2446 41.7323 55.6599 40.1185C58.0753 38.5046 59.9578 36.2107 61.0695 33.5269C62.1811 30.8431 62.472 27.89 61.9053 25.0409C61.3386 22.1918 59.9397 19.5747 57.8856 17.5206C55.8315 15.4665 53.2145 14.0677 50.3654 13.501C47.5163 12.9343 44.5631 13.2251 41.8793 14.3368C39.1955 15.4484 36.9017 17.331 35.2878 19.7463C33.6739 22.1617 32.8125 25.0013 32.8125 27.9063C32.8169 31.8003 34.3658 35.5335 37.1193 38.287C39.8727 41.0405 43.606 42.5893 47.5 42.5938ZM47.5 16.1563C49.8239 16.1563 52.0957 16.8454 54.0279 18.1365C55.9602 19.4276 57.4663 21.2627 58.3556 23.4097C59.2449 25.5568 59.4776 27.9193 59.0242 30.1986C58.5709 32.4778 57.4518 34.5715 55.8085 36.2148C54.1652 37.858 52.0716 38.9771 49.7923 39.4305C47.513 39.8839 45.1505 39.6512 43.0035 38.7618C40.8564 37.8725 39.0213 36.3665 37.7302 34.4342C36.4391 32.5019 35.75 30.2302 35.75 27.9063C35.7535 24.791 36.9926 21.8044 39.1954 19.6016C41.3982 17.3988 44.3848 16.1598 47.5 16.1563Z" fill="#F2F2F2"/>
<path d="M43.7903 33.562C44.0033 33.6936 44.2464 33.7686 44.4965 33.7798C44.7466 33.791 44.9955 33.7381 45.2194 33.6261L54.0319 29.2198C54.2758 29.0978 54.481 28.9103 54.6243 28.6783C54.7677 28.4463 54.8437 28.1789 54.8437 27.9062C54.8437 27.6335 54.7677 27.3661 54.6243 27.1341C54.481 26.9021 54.2758 26.7146 54.0319 26.5926L45.2194 22.1863C44.9955 22.0744 44.7467 22.0215 44.4965 22.0327C44.2464 22.044 44.0034 22.119 43.7904 22.2506C43.5774 22.3822 43.4016 22.5661 43.2797 22.7847C43.1578 23.0034 43.0938 23.2496 43.0938 23.4999V32.3124C43.0937 32.5628 43.1577 32.8091 43.2796 33.0278C43.4015 33.2465 43.5773 33.4304 43.7903 33.562ZM46.0313 25.8764L50.0907 27.9062L46.0313 29.936V25.8764ZM25.4688 58.75C24.0163 58.75 22.5965 59.1807 21.3888 59.9876C20.1811 60.7945 19.2398 61.9415 18.684 63.2834C18.1282 64.6253 17.9828 66.1018 18.2661 67.5264C18.5495 68.9509 19.2489 70.2595 20.2759 71.2865C21.303 72.3136 22.6115 73.013 24.0361 73.2963C25.4606 73.5797 26.9372 73.4343 28.2791 72.8784C29.621 72.3226 30.7679 71.3813 31.5749 70.1737C32.3818 68.966 32.8125 67.5462 32.8125 66.0937C32.8103 64.1467 32.0359 62.28 30.6592 60.9033C29.2824 59.5266 27.4158 58.7521 25.4688 58.75ZM29.875 66.0937C29.8752 66.459 29.8299 66.8228 29.7401 67.1769L22.8285 62.5687C23.4829 62.0779 24.2611 61.779 25.0759 61.7056C25.8906 61.6322 26.7097 61.7872 27.4413 62.1532C28.1729 62.5192 28.7881 63.0817 29.218 63.7777C29.6478 64.4737 29.8753 65.2757 29.875 66.0937ZM21.0625 66.0937C21.0623 65.7284 21.1076 65.3646 21.1974 65.0105L28.109 69.6187C27.4546 70.1095 26.6764 70.4084 25.8616 70.4818C25.0469 70.5552 24.2278 70.4002 23.4962 70.0342C22.7646 69.6682 22.1494 69.1057 21.7195 68.4097C21.2897 67.7137 21.0622 66.9117 21.0625 66.0937ZM74.6311 46.9317C75.586 47.9436 77.1196 48.4687 78.3438 48.4687C79.568 48.4687 81.1015 47.9436 82.0564 46.9317C83.0313 46.7582 83.9193 46.2614 84.5773 45.5214C85.2353 44.7814 85.6248 43.8413 85.6831 42.8528C85.7413 41.8643 85.465 40.885 84.8985 40.0729C84.332 39.2607 83.5085 38.663 82.5607 38.3762C82.2866 37.4712 81.7286 36.6785 80.9692 36.1151C80.2098 35.5517 79.2893 35.2475 78.3438 35.2475C77.3982 35.2475 76.4777 35.5517 75.7183 36.1151C74.959 36.6785 74.401 37.4712 74.1268 38.3762C73.179 38.663 72.3555 39.2607 71.789 40.0729C71.2226 40.885 70.9462 41.8643 71.0045 42.8528C71.0627 43.8413 71.4523 44.7814 72.1102 45.5214C72.7682 46.2614 73.6562 46.7582 74.6311 46.9317ZM75.4063 41.125C75.7958 41.125 76.1694 40.9702 76.4448 40.6948C76.7203 40.4193 76.875 40.0457 76.875 39.6562C76.875 39.2667 77.0298 38.8931 77.3052 38.6176C77.5806 38.3422 77.9542 38.1875 78.3438 38.1875C78.7333 38.1875 79.1069 38.3422 79.3823 38.6176C79.6578 38.8931 79.8125 39.2667 79.8125 39.6562C79.8125 40.0457 79.9673 40.4193 80.2427 40.6948C80.5181 40.9702 80.8917 41.125 81.2813 41.125C81.4741 41.1244 81.6652 41.1619 81.8436 41.2352C82.022 41.3086 82.1842 41.4163 82.321 41.5523C82.4577 41.6884 82.5664 41.85 82.6406 42.028C82.7149 42.206 82.7534 42.3969 82.754 42.5898C82.7545 42.7826 82.717 42.9737 82.6437 43.1521C82.5703 43.3305 82.4626 43.4927 82.3266 43.6295C82.1905 43.7662 82.0289 43.8748 81.8509 43.9491C81.6729 44.0234 81.482 44.0619 81.2892 44.0625H81.2535C80.9666 44.059 80.6851 44.1404 80.4444 44.2965C80.2036 44.4526 80.0144 44.6763 79.9005 44.9397C79.4714 45.3206 78.9175 45.531 78.3438 45.531C77.77 45.531 77.2161 45.3206 76.7871 44.9397C76.6731 44.6763 76.4839 44.4526 76.2431 44.2965C76.0024 44.1404 75.7209 44.059 75.434 44.0625H75.3984C75.2055 44.0619 75.0146 44.0234 74.8366 43.9491C74.6586 43.8748 74.497 43.7662 74.361 43.6295C74.2249 43.4927 74.1172 43.3305 74.0439 43.1521C73.9705 42.9737 73.933 42.7826 73.9336 42.5898C73.9341 42.3969 73.9726 42.206 74.0469 42.028C74.1212 41.85 74.2298 41.6884 74.3665 41.5523C74.5033 41.4163 74.6655 41.3086 74.8439 41.2352C75.0223 41.1619 75.2134 41.1244 75.4063 41.125Z" fill="#EDEDED"/>
</svg>
