<svg width="54" height="54" viewBox="0 0 54 54" fill="none" xmlns="http://www.w3.org/2000/svg">
<path d="M13.7979 19.8673H23.2283V20.6169H14.6623V26.2582H22.7176V27.0077H14.6623V33.2014H23.3266V33.9509H13.7979V19.8673ZM24.0732 19.8673H25.0752L29.5153 26.0609L34.0537 19.8672L40.2267 12L30.0851 26.7119L35.3111 33.9509H34.2698L29.5153 27.3628L24.7411 33.9509H23.7195L28.9849 26.7118L24.0732 19.8673ZM35.6844 20.6169V19.8672H46.4313V20.6168H41.4802V33.9508H40.6157V20.6169H35.6844ZM2 19.8672H3.08057L17.981 42.1644L11.8234 33.9508L2.90371 20.9324L2.86445 33.951H2L2 19.8672ZM46.3441 32.975C46.1675 32.975 46.0351 32.8383 46.0351 32.6613C46.0351 32.4846 46.1675 32.3477 46.3441 32.3477C46.5229 32.3477 46.6532 32.4845 46.6532 32.6613C46.6532 32.8382 46.5229 32.975 46.3441 32.975ZM47.1936 32.1498H47.6562C47.6624 32.4003 47.8453 32.5687 48.1145 32.5687C48.4151 32.5687 48.5854 32.3877 48.5854 32.0487V29.9013H49.0564V32.0508C49.0564 32.6613 48.7032 33.013 48.1187 33.013C47.5698 33.013 47.1936 32.6719 47.1936 32.1497V32.1498ZM49.6725 32.1225H50.1393C50.1792 32.4108 50.4609 32.5939 50.8668 32.5939C51.2452 32.5939 51.5228 32.3981 51.5228 32.1287C51.5228 31.8972 51.3461 31.7582 50.9445 31.6635L50.5534 31.5687C50.0046 31.4402 49.7545 31.175 49.7545 30.7287C49.7545 30.1877 50.196 29.8276 50.8583 29.8276C51.4743 29.8276 51.9243 30.1876 51.9517 30.6992H51.4933C51.4491 30.4192 51.2052 30.2444 50.852 30.2444C50.4799 30.2444 50.2318 30.4234 50.2318 30.6971C50.2318 30.9139 50.3915 31.0382 50.7868 31.1308L51.1211 31.2129C51.7435 31.3582 52 31.6108 52 32.0677C52 32.6487 51.5501 33.013 50.8311 33.013C50.1582 33.013 49.7061 32.6655 49.6725 32.1224V32.1225Z" fill="white"/>
</svg>
