<svg width="54" height="54" viewBox="0 0 54 54" fill="none" xmlns="http://www.w3.org/2000/svg">
<path d="M17.1993 43.8834C17.1622 43.8177 17.1291 43.7499 17.1002 43.6802C16.9004 43.2179 16.8389 42.7077 16.9231 42.2111H5.10275L22.6693 11.2976L28.4363 21.4354L30.1086 18.4765L25.0814 9.62013C24.8405 9.16649 24.4896 8.7805 24.0609 8.49747C23.6323 8.21444 23.1395 8.0434 22.6277 8C22.1171 8.02338 21.6232 8.18957 21.2024 8.47967C20.7815 8.76977 20.4505 9.17214 20.2469 9.64104L2.4511 40.9296C2.18505 41.3714 2.03165 41.8718 2.0044 42.3868C1.97714 42.9018 2.07687 43.4156 2.29481 43.883C2.56855 44.3145 2.95759 44.6608 3.4179 44.8828C3.87822 45.1047 4.39146 45.1934 4.89958 45.1389H19.8041C19.2959 45.1943 18.7824 45.106 18.3219 44.8841C17.8615 44.6621 17.4725 44.3154 17.1993 43.8834Z" fill="#00C492"/>
<path d="M51.4676 40.9295L36.8444 15.1683C36.6046 14.7098 36.2531 14.3191 35.8224 14.0323C35.3917 13.7456 34.8958 13.5719 34.3803 13.5273C33.87 13.5493 33.3761 13.7144 32.9552 14.0036C32.5342 14.2929 32.203 14.6947 31.9995 15.1631L30.1084 18.4764L31.7911 21.4354L34.3954 16.825L48.8628 42.2111H43.3615C43.4319 42.6308 43.3924 43.0615 43.2469 43.4614C43.2163 43.5497 43.1779 43.6351 43.1322 43.7167L43.0854 43.8104C42.7864 44.2325 42.3881 44.5745 41.9256 44.8061C41.4632 45.0377 40.9508 45.1519 40.4337 45.1385H49.0399C49.557 45.1524 50.0696 45.0385 50.5322 44.8068C50.9947 44.5751 51.393 44.2329 51.6915 43.8104C51.9272 43.3573 52.0312 42.8472 51.9916 42.3379C51.952 41.8287 51.7705 41.3408 51.4676 40.9295Z" fill="#008776"/>
<path d="M43.0855 43.8106L43.1323 43.7168C43.178 43.6352 43.2164 43.5498 43.247 43.4615C43.3925 43.0616 43.432 42.6309 43.3616 42.2112C43.2805 41.7586 43.1182 41.3244 42.8823 40.9297L31.802 21.4355L30.1089 18.4766L28.4263 21.4355L17.3507 40.9302C17.1357 41.3296 16.9912 41.7632 16.9235 42.2117C16.8344 42.7068 16.8905 43.217 17.0851 43.6808C17.1139 43.7505 17.147 43.8184 17.1842 43.884C17.458 44.3155 17.8471 44.6617 18.3074 44.8836C18.7677 45.1054 19.281 45.1941 19.7891 45.1395H40.4183C40.9379 45.1548 41.4533 45.0414 41.9186 44.8096C42.3839 44.5777 42.7847 44.2346 43.0855 43.8106ZM30.1085 24.3945L40.2359 42.2112H19.9864L30.1085 24.3945Z" fill="#2D4A5D"/>
</svg>
