<svg width="95" height="94" viewBox="0 0 95 94" fill="none" xmlns="http://www.w3.org/2000/svg">
<path d="M73.5157 15.766C71.3244 6.32953 61.209 5.23482 61.209 5.23482C61.209 5.23482 54.8086 -1.17679 46.2057 1.339C37.7819 3.8007 32.3176 16.2658 26.2939 19.3411C27.9313 19.9715 29.6527 20.0405 31.4859 19.3411C30.242 20.6298 29.5184 22.3567 29.1156 24.354L69.8157 32.5578C69.8157 32.5578 75.7051 25.2007 73.5157 15.766Z" fill="#604533"/>
<path d="M69.8159 32.5586C70.0416 32.6034 70.2542 32.6612 70.4742 32.7488C72.7308 33.6552 73.7434 36.6241 72.7364 39.3823C71.8636 41.7713 69.7599 43.2427 67.7477 43.0003H67.7458C66.1679 39.652 66.4279 35.8703 69.8159 32.5586Z" fill="#F7B6AD"/>
<path d="M60.4559 11.9531C60.0904 16.5296 58.8036 20.2408 56.146 22.8051C53.0434 31.7344 57.6928 39.5846 65.7691 46.9577C66.0096 46.6258 66.2241 46.3013 66.4125 45.9861C66.8936 45.1842 67.3412 44.1734 67.7459 43.0004C68.7026 40.231 69.4262 36.5552 69.8159 32.5587C68.3501 24.0789 61.7557 19.9723 60.4559 11.9531Z" fill="#FEC4B9"/>
<path d="M68.7622 63.174C67.1752 62.07 65.3102 61.2886 63.505 60.7365C61.909 68.8771 65.5626 74.794 75.7389 77.9479C77.4776 79.7338 79.2955 79.1101 80.4889 77.1385C78.6165 72.8101 72.9788 66.1057 68.7622 63.174ZM54.9823 68.7874C54.6211 60.9314 49.4079 59.9842 42.7876 61.0405C38.6698 63.049 33.6718 66.6297 29.5093 72.5676C26.2806 78.8187 27.4536 83.4399 32.564 86.7261C36.2025 85.0943 38.8582 83.1324 38.8582 83.1324V93.2533H70.9572V89.3258L54.9823 68.7874Z" fill="#F69552"/>
<path d="M81.1134 79.2961C81.063 78.69 80.843 77.9571 80.4886 77.1384C79.0694 77.0097 77.2213 77.3529 75.7387 77.9478C75.224 76.2078 74.4146 74.1881 73.1371 72.2915C69.8866 67.4632 65.8676 63.8322 63.5048 60.7364C62.5201 59.4459 61.8245 58.2504 61.5895 57.0979C61.403 56.1767 61.3583 55.2032 61.3993 54.2166C64.9719 46.2836 66.1821 40.4839 60.0901 41.2778L40.3629 44.8845H40.3611C35.7888 47.5214 36.4093 50.8452 39.9266 54.5523C40.0329 54.7798 40.1597 54.9999 40.3107 55.2088C40.3107 55.2088 39.6673 57.773 40.9635 59.6417C41.232 60.0277 41.894 60.5107 42.7873 61.0404C45.0644 62.3887 48.8372 64.028 51.366 65.0742C52.1893 65.415 52.9346 65.9201 53.5563 66.5584C54.178 67.1968 54.6632 67.9552 54.9821 68.7873C56.8936 73.7536 61.0748 84.1486 63.4563 86.4686C65.2709 88.2366 68.223 89.1187 70.957 89.3257C72.9786 89.4805 74.879 89.2641 76.1117 88.7625C79.0116 87.5838 81.4211 83.0017 81.1134 79.2961Z" fill="#FEC4B9"/>
<path d="M42.0377 22.8034C42.0377 22.8034 34.91 21.6919 31.21 23.1428C30.4938 23.4244 29.7908 23.8422 29.1157 24.3532C26.2978 26.4829 23.9853 30.2258 23.437 32.3649C22.7563 35.0187 23.8846 47.1369 23.2505 50.4621C22.6183 53.7873 15.4476 66.4706 14.2075 72.4607C12.9692 78.4509 14.849 87.8389 22.387 88.7844C25.8148 89.2152 29.5315 88.0851 32.5639 86.7255C33.5784 80.7112 32.4054 76.0899 29.5092 72.5671C30.8239 65.1279 32.4912 55.2885 32.3494 53.957C32.3196 53.6791 32.2674 53.4217 32.1965 53.1793L39.7252 42.2117L39.7476 42.2098L44.0351 32.9393C44.9644 29.5349 44.125 26.1592 42.0377 22.8034Z" fill="#FEC4B9"/>
<path d="M59.344 25.8595H57.3672L56.1457 22.8048C55.9363 22.2811 55.5747 21.8322 55.1076 21.5161C54.6406 21.2 54.0895 21.0311 53.5255 21.0313H44.6578C43.5034 21.0313 42.4665 21.7343 42.0375 22.8048L40.816 25.8595H36.1649C32.6159 25.8595 29.7402 28.7371 29.7402 32.2842V32.5807C30.5403 31.9895 31.5212 31.3984 32.5525 31.0869C35.0814 30.3204 40.1987 30.3242 41.8828 30.6319C43.5668 30.9415 44.0349 32.9407 44.0349 32.9407L57.0073 33.9757C56.4523 36.8742 57.3939 39.5645 60.09 41.2787C60.09 41.2787 62.4846 42.7222 62.5349 45.5121C62.5741 47.6474 61.5335 51.0024 61.3992 54.2176C63.9392 53.3597 65.7687 50.9577 65.7687 48.1286V32.2842C65.7687 28.7371 62.893 25.8595 59.344 25.8595ZM40.3628 44.8855H40.361C40.361 44.8855 38.6098 47.543 39.7045 50.1203C39.7045 50.1203 38.9996 52.569 39.9264 54.5533H36.1649C34.7252 54.5559 33.3268 54.0723 32.1963 53.1807C31.7115 51.5321 30.4097 50.6537 30.2419 49.3744C30.0479 47.9104 30.5366 46.3662 32.2075 45.0291C33.8785 43.6919 39.725 42.2131 39.725 42.2131L39.7474 42.2112C41.012 42.9064 41.2228 43.8035 40.3628 44.8855Z" fill="#524956"/>
<path d="M60.0901 41.2777C60.0901 44.0938 58.9487 46.6413 57.1043 48.4857C55.2599 50.3301 52.7124 51.4714 49.8983 51.4714C47.0822 51.4714 44.5347 50.3301 42.6903 48.4857C41.6777 47.473 40.8776 46.2478 40.3629 44.8845C40.0363 44.0255 39.8292 43.1256 39.7475 42.2102C39.7195 41.9025 39.7046 41.5929 39.7046 41.2777C39.7046 40.211 39.8687 39.1816 40.1746 38.2137C40.6408 36.7329 41.4371 35.3958 42.474 34.2936C42.5467 34.2171 42.6176 34.1444 42.6903 34.0717C43.1043 33.6577 43.5538 33.2791 44.0349 32.9397C45.6947 31.7722 47.7144 31.0859 49.8983 31.0859C52.6621 31.0859 55.1704 32.1881 57.0074 33.9747C58.9096 35.8266 60.0901 38.4151 60.0901 41.2777Z" fill="#5D5560"/>
<path d="M49.8986 47.9027C53.5571 47.9027 56.5228 44.937 56.5228 41.2785C56.5228 37.6201 53.5571 34.6543 49.8986 34.6543C46.2402 34.6543 43.2744 37.6201 43.2744 41.2785C43.2744 44.937 46.2402 47.9027 49.8986 47.9027Z" fill="#655F68"/>
<path d="M80.4887 77.1383C79.0695 77.0096 77.2214 77.3528 75.7388 77.9477C75.2241 76.2077 74.4147 74.188 73.1372 72.2914C69.8867 67.4631 65.8677 63.8321 63.5049 60.7363C65.3101 61.2883 67.1751 62.0698 68.7621 63.1738C72.9787 66.1054 78.6164 72.8098 80.4887 77.1383Z" fill="#DD864A"/>
<path d="M81.1133 79.296C81.421 83.0016 79.0116 87.5837 76.1116 88.7623C74.8789 89.264 72.9785 89.4803 70.957 89.3255C70.0376 89.2546 69.0958 89.1092 68.1782 88.8779C77.9113 89.3927 76.6077 82.5428 76.6077 82.5428C76.6077 82.5428 76.507 80.5585 75.7386 77.9476C77.2212 77.3527 79.0694 77.0096 80.4886 77.1382C80.8429 77.9569 81.063 78.6899 81.1133 79.296Z" fill="#F7B6AD"/>
<path d="M70.9572 89.3261V93.2537C60.0847 92.8229 60.5155 81.9951 60.5267 81.7639C61.6065 83.9197 62.6378 85.6709 63.4565 86.4691C64.6612 87.6421 66.3676 88.4254 68.1785 88.8785C69.096 89.1098 70.0378 89.2553 70.9572 89.3261ZM32.2283 69.1309C32.4391 71.8686 32.0941 74.0655 31.5234 75.7886C30.9956 74.6249 30.3205 73.5545 29.5093 72.5679C30.3839 71.3203 31.294 70.1771 32.2283 69.1309Z" fill="#DD864A"/>
<path d="M29.509 72.5684C30.3202 73.5549 30.9953 74.6254 31.5231 75.7891C30.2848 79.5301 27.9797 81.0463 27.9797 81.0463C27.9797 81.0463 28.6735 77.2903 29.509 72.5684ZM32.9162 83.1481C32.8901 84.2819 32.7744 85.4755 32.5637 86.7269C29.5313 88.0864 25.8145 89.2165 22.3868 88.7857C20.2179 88.5135 18.519 87.5437 17.2266 86.1562H17.2284C22.9146 88.4985 28.7443 85.9772 32.9162 83.1481Z" fill="#F7B6AD"/>
<path d="M38.8581 78.0645V83.1333C38.8581 83.1333 36.2024 85.0952 32.564 86.727C32.7747 85.4757 32.8903 84.2821 32.9164 83.1482C36.4971 80.7201 38.8581 78.0645 38.8581 78.0645Z" fill="#DD864A"/>
<path d="M49.8978 48.6484C53.9617 48.6484 57.2678 45.3422 57.2678 41.2784C57.2678 37.2145 53.9617 33.9082 49.8978 33.9082C45.834 33.9082 42.5278 37.2145 42.5278 41.2784C42.5278 45.3422 45.834 48.6484 49.8978 48.6484ZM49.8978 35.4003C53.1391 35.4003 55.7759 38.0373 55.7759 41.2786C55.7759 44.5196 53.1391 47.1566 49.8978 47.1566C46.6568 47.1566 44.0198 44.5196 44.0198 41.2786C44.0198 38.0371 46.6568 35.4003 49.8978 35.4003Z" fill="#F2F2F2"/>
<path d="M81.8571 79.235C81.5139 75.0963 74.1967 66.0457 69.1877 62.562C67.767 61.5742 66.0086 60.748 63.9637 60.1009C63.1191 58.9677 62.5182 57.9176 62.3214 56.9503C62.1778 56.2444 62.125 55.4988 62.1327 54.7355C63.4324 54.1876 64.5415 53.2684 65.321 52.093C66.1006 50.9176 66.516 49.5383 66.5151 48.1279V47.19C66.7035 46.923 66.8826 46.6496 67.052 46.3702C67.4832 45.6516 67.889 44.7753 68.264 43.7669C70.4366 43.7229 72.5472 42.0749 73.4369 39.6384C74.541 36.6146 73.4526 33.3372 71.0107 32.1712C72.5104 29.9227 76.0782 23.5077 74.242 15.5969C73.2956 11.5198 70.7514 8.30484 66.8845 6.29986C64.4825 5.05447 62.288 4.64027 61.5495 4.52856C60.3879 3.45268 54.1986 -1.77544 45.9961 0.622475C40.9332 2.10248 36.9141 7.01226 33.3681 11.3439C30.8014 14.4794 28.3772 17.4409 25.955 18.6777C25.8267 18.7433 25.7202 18.8446 25.6482 18.9695C25.5763 19.0943 25.542 19.2373 25.5496 19.3812C25.5572 19.5251 25.6062 19.6637 25.6909 19.7803C25.7756 19.8969 25.8922 19.9865 26.0267 20.0382C27.2346 20.5026 28.4559 20.6704 29.6772 20.5423C29.1359 21.5023 28.7287 22.6282 28.443 23.9338C25.6115 26.1757 23.3037 29.8801 22.7134 32.1809C22.3438 33.6219 22.4602 37.3454 22.5831 41.2877C22.6978 44.9595 22.8162 48.7565 22.5182 50.3236C22.261 51.6759 20.7114 54.9734 19.0707 58.4644C16.7858 63.3263 14.1958 68.8371 13.4772 72.3103C12.6764 76.1812 13.09 81.7946 15.8196 85.6098C17.4156 87.8409 19.6542 89.1952 22.2933 89.5262C22.8322 89.5937 23.3755 89.6252 23.9221 89.6252C29.6459 89.6247 35.6202 86.1699 38.111 84.5468V93.2536C38.111 93.4515 38.1896 93.6412 38.3295 93.7811C38.4694 93.921 38.6591 93.9996 38.857 93.9996H70.9564C71.1542 93.9996 71.344 93.921 71.4839 93.7811C71.6238 93.6412 71.7024 93.4515 71.7024 93.2536V90.1129C71.8678 90.1176 72.0328 90.1217 72.1956 90.1217C73.8493 90.1215 75.3461 89.8802 76.3934 89.454C79.5888 88.1544 82.1927 83.2837 81.8571 79.235ZM68.336 63.7869C72.3025 66.5455 77.1821 72.328 79.3062 76.3846C78.3191 76.4434 77.2397 76.6517 76.2214 76.9825C75.6871 75.3682 74.9044 73.58 73.7571 71.8756C71.7337 68.8703 69.4326 66.3396 67.4022 64.1069C66.8919 63.5479 66.3852 62.9856 65.8823 62.4199C66.7937 62.8304 67.6159 63.2862 68.336 63.7869ZM65.0233 48.1277C65.0235 49.1134 64.7668 50.0822 64.2787 50.9385C63.7905 51.7949 63.0876 52.5093 62.2394 53.0114C62.3634 51.8329 62.5758 50.6496 62.7768 49.5353C63.0467 48.0395 63.3016 46.6264 63.2813 45.4989C63.236 42.999 61.5891 41.4623 60.8265 40.8839C60.7271 38.0565 59.5666 35.4261 57.5278 33.441C55.4742 31.4416 52.7644 30.3406 49.8979 30.3406C47.9341 30.3406 46.0503 30.8568 44.3982 31.8213C44.0196 31.0776 43.2979 30.1325 42.0174 29.8982C40.2846 29.5812 35.0051 29.5633 32.337 30.3727C31.7324 30.5562 31.1479 30.8244 30.6035 31.1311C31.1378 28.551 33.4282 26.6055 36.1644 26.6055H40.817C40.9661 26.6055 41.1118 26.5608 41.2353 26.4772C41.3588 26.3935 41.4543 26.2748 41.5096 26.1363L42.7304 23.0819C42.8832 22.6959 43.1489 22.3648 43.4927 22.132C43.8365 21.8991 44.2426 21.7753 44.6578 21.7767H53.5263C54.3802 21.7767 55.1368 22.289 55.4537 23.0819L56.6744 26.1363C56.7297 26.2748 56.8253 26.3935 56.9488 26.4772C57.0722 26.5608 57.2179 26.6055 57.3671 26.6055H59.3443C62.4757 26.6055 65.023 29.153 65.023 32.2842V48.1277H65.0233ZM33.08 54.6038C34.0341 55.0604 35.0782 55.2983 36.1644 55.2983H39.4783C39.4908 55.3194 39.5061 55.3395 39.519 55.3604C39.3773 56.1817 39.1576 58.3471 40.35 60.0669C40.5307 60.3276 40.8524 60.6262 41.3116 60.9612C38.2596 62.6051 34.3806 65.3215 30.7759 69.6769C31.8323 63.5989 32.9213 56.9678 33.08 54.6038ZM38.9332 50.1957C38.9131 50.2426 38.8978 50.2914 38.8875 50.3413C38.7497 51.0157 38.5552 52.4025 38.887 53.8064H36.1642C34.9494 53.8064 33.8023 53.4282 32.8288 52.7184C32.5475 51.9146 32.1112 51.2857 31.7378 50.7486C31.365 50.2125 31.0431 49.7494 30.981 49.2772C30.7984 47.8895 31.368 46.6561 32.674 45.6113C33.6557 44.8262 36.6474 43.8259 39.1203 43.1461C39.2165 43.7106 39.3574 44.2666 39.5416 44.8089C39.0806 45.6544 38.078 47.9035 38.9332 50.1957ZM40.4515 41.2789C40.4515 40.3103 40.5975 39.3646 40.8769 38.4651L40.8778 38.4625C41.3263 37.02 42.1196 35.6978 43.2185 34.5991C45.0026 32.815 47.3748 31.8323 49.8979 31.8323C52.3734 31.8323 54.7135 32.7833 56.487 34.5098C58.3296 36.3037 59.3443 38.7078 59.3443 41.2787C59.3443 43.8018 58.3616 46.1742 56.5775 47.9583C54.7933 49.7423 52.4209 50.725 49.8979 50.725C47.3748 50.725 45.0024 49.7423 43.2185 47.9583C41.4341 46.1744 40.4515 43.8022 40.4515 41.2789ZM66.5153 44.1222V32.2842C66.5153 28.3304 63.2985 25.1136 59.3446 25.1136H57.8727L57.0211 22.9833C58.7984 21.1213 60.0084 18.6912 60.6794 15.6198C61.6318 18.1266 63.0307 20.2937 64.3971 22.4104C66.334 25.411 68.3349 28.5141 69.0626 32.5927C68.5971 37.2787 67.6732 41.4186 66.5153 44.1222ZM72.0358 39.1263C71.4359 40.7698 70.1545 41.9477 68.7839 42.2192C69.5152 39.8125 70.0929 36.8542 70.4599 33.5667C72.1531 34.446 72.8625 36.8617 72.0358 39.1263ZM32.1082 18.9306C32.0147 18.7891 31.8758 18.6837 31.7143 18.6317C31.5529 18.5798 31.3785 18.5844 31.2201 18.6449C30.1836 19.0401 29.1689 19.1751 28.1512 19.05C30.2942 17.4543 32.3599 14.9309 34.5229 12.2887C38.0981 7.92104 41.7953 3.40438 46.4149 2.05399C54.4761 -0.301222 60.6215 5.70178 60.6818 5.76202C60.802 5.88215 60.9595 5.95778 61.1284 5.97648C61.1527 5.9791 63.5918 6.262 66.2426 7.64727C69.7336 9.47172 71.936 12.2598 72.7889 15.9339C74.3265 22.5583 71.6746 28.1851 70.1673 30.694C69.2147 27.1268 67.4078 24.323 65.6507 21.6012C63.6767 18.5433 61.8119 15.6547 61.192 11.8322C61.1316 11.4595 60.8011 11.1934 60.4255 11.2063C60.2433 11.2137 60.0701 11.2876 59.9387 11.414C59.8073 11.5404 59.7267 11.7106 59.7122 11.8924C59.3734 16.1353 58.2453 19.314 56.2772 21.5786C55.6127 20.7709 54.6161 20.2849 53.5266 20.2849H44.6582C43.3936 20.2849 42.2545 20.9397 41.6146 21.9925C39.85 21.7608 34.2196 21.1633 30.9372 22.4503C30.7333 22.5301 30.5306 22.6226 30.3287 22.7222C30.7421 21.5518 31.3021 20.6066 32.0226 19.8599C32.1404 19.7378 32.2131 19.5792 32.2286 19.4103C32.2442 19.2414 32.2017 19.0722 32.1082 18.9306ZM22.4794 88.0462C20.2323 87.7642 18.4 86.6525 17.0332 84.7421C14.5659 81.2937 14.2034 76.1653 14.9384 72.6128C15.6213 69.3123 18.1712 63.8863 20.4211 59.099C22.176 55.3649 23.6918 52.1401 23.984 50.6022C24.3126 48.8738 24.197 45.1664 24.0743 41.2411C23.9599 37.5765 23.8415 33.7872 24.1586 32.5517C24.8296 29.9363 28.1998 25.1255 31.4814 23.8389C34.1848 22.7793 38.9739 23.1843 40.9886 23.4199L40.3118 25.1134H36.1644C32.2355 25.1134 29.0363 28.2897 28.9956 32.2089C27.9714 33.0045 27.2978 33.7357 27.2465 33.792C27.149 33.8988 27.0846 34.0316 27.0613 34.1744C27.0379 34.3171 27.0565 34.4635 27.1149 34.5958C27.1733 34.7281 27.2689 34.8406 27.3901 34.9195C27.5113 34.9985 27.6528 35.0405 27.7974 35.0404C27.901 35.0405 28.0035 35.019 28.0983 34.9773C28.1932 34.9355 28.2782 34.8745 28.3481 34.798C28.369 34.775 30.4739 32.4966 32.77 31.8003C35.1954 31.0644 40.179 31.0782 41.7489 31.3656C42.5167 31.506 42.9447 32.202 43.1508 32.6714C42.8047 32.9426 42.475 33.234 42.1633 33.5442C42.148 33.5595 42.134 33.5755 42.1189 33.5908C40.6767 33.7922 33.7706 34.7931 31.4702 35.7985C28.8824 36.9296 27.043 39.1608 26.966 39.2553C26.8768 39.3646 26.8205 39.4969 26.8035 39.637C26.7865 39.777 26.8096 39.919 26.87 40.0464C26.9305 40.1739 27.0259 40.2815 27.1451 40.3569C27.2644 40.4323 27.4025 40.4723 27.5436 40.4724C27.6542 40.4725 27.7634 40.448 27.8633 40.4007C27.9633 40.3535 28.0515 40.2845 28.1215 40.199C28.1383 40.1786 29.818 38.1488 32.0677 37.1653C33.7034 36.4503 38.1833 35.6937 40.734 35.3028C40.2642 36.0184 39.8811 36.7873 39.5927 37.5933C38.064 37.9952 32.6524 39.4616 30.8747 40.5304C28.7785 41.7903 27.651 43.6032 27.604 43.6798C27.5346 43.7928 27.4965 43.9223 27.4937 44.0549C27.491 44.1875 27.5237 44.3184 27.5883 44.4342C27.653 44.5499 27.7474 44.6464 27.8618 44.7135C27.9762 44.7806 28.1064 44.8161 28.239 44.8161C28.3667 44.8162 28.4923 44.7836 28.6037 44.7212C28.7152 44.6589 28.8088 44.569 28.8755 44.4601C28.8852 44.4445 29.8561 42.8835 31.6432 41.8091C32.9194 41.0419 36.7867 39.8993 39.1469 39.2566C39.0225 39.9233 38.9596 40.6001 38.9592 41.2784C38.9592 41.3996 38.964 41.5199 38.9679 41.6404C37.0717 42.1521 33.1725 43.3013 31.7419 44.4456C29.5722 46.1813 29.3261 48.1364 29.5016 49.4712C29.611 50.3026 30.0692 50.9618 30.5124 51.5992C30.997 52.2967 31.4983 53.0177 31.6065 54.0361C31.7678 55.5547 29.0872 70.9392 27.2459 80.9095C27.21 81.1041 27.2528 81.3049 27.365 81.4679C27.4772 81.6309 27.6495 81.7426 27.844 81.7786C28.0386 81.8145 28.2394 81.7717 28.4024 81.6595C28.5654 81.5473 28.6771 81.375 28.7131 81.1805C28.857 80.4007 29.3414 77.7688 29.9383 74.424C31.9774 77.6142 32.6169 81.4878 31.8911 86.1988C29.0234 87.4455 25.6031 88.4371 22.4794 88.0462ZM70.2106 92.5078H39.6033V78.0634C39.6033 77.8656 39.5247 77.6758 39.3848 77.536C39.2449 77.3961 39.0552 77.3175 38.8573 77.3175C38.6595 77.3175 38.4697 77.3961 38.3298 77.536C38.19 77.6758 38.1114 77.8656 38.1114 78.0634V82.7459C37.4454 83.2067 35.7323 84.3411 33.4974 85.4513C34.0945 80.3269 33.0692 75.9934 30.4411 72.5457C34.5824 66.8198 39.3471 63.6079 42.7655 61.8852C44.5884 62.93 47.3664 64.2264 51.0812 65.7643C52.5474 66.3711 53.7157 67.5706 54.2868 69.0551C56.4749 74.7429 60.5082 84.6382 62.9355 87.0035C64.752 88.7733 67.5341 89.7034 70.2106 90.0068V92.5078ZM75.8315 88.0719C73.1505 89.1627 66.8521 88.7364 63.9769 85.9347C62.3528 84.3521 59.3282 78.0045 55.6793 68.5191C54.9621 66.6548 53.494 65.1481 51.6516 64.3853C44.9381 61.6062 42.0449 59.8933 41.576 59.2167C41.0551 58.4653 40.9097 57.5545 40.8989 56.8096C43.2254 58.6188 47.3886 60.345 47.9475 60.5727C48.1295 60.6412 48.331 60.6361 48.5092 60.5582C48.6875 60.4804 48.8282 60.336 48.9016 60.156C48.975 59.9759 48.9751 59.7743 48.902 59.594C48.829 59.4138 48.6884 59.2693 48.5104 59.1912C46.7741 58.4836 42.0255 56.3108 40.9151 54.772C40.3002 53.9199 40.1691 52.8379 40.1962 51.9513C42.6144 54.2319 47.5195 56.3557 48.1844 56.6373C48.3665 56.7145 48.5718 56.7161 48.7552 56.6419C48.9386 56.5678 49.085 56.4238 49.1623 56.2418C49.2396 56.0596 49.2413 55.8543 49.1671 55.6709C49.0929 55.4875 48.9489 55.3411 48.7668 55.2638C45.9066 54.0507 41.1036 51.5023 40.3922 49.8283C39.9091 48.6916 40.0826 47.5231 40.3672 46.6497C40.8563 47.5153 41.4606 48.3105 42.1636 49.0135C44.2296 51.0795 46.9765 52.2173 49.898 52.2173C52.8196 52.2173 55.5667 51.0795 57.6326 49.0135C59.3265 47.3196 60.3951 45.1675 60.7256 42.8369C61.242 43.4454 61.7683 44.3501 61.7896 45.5257C61.8075 46.5063 61.565 47.8487 61.3086 49.2701C60.8521 51.8001 60.3347 54.6676 60.8595 57.2473C61.3526 59.6714 63.5351 62.0715 66.2982 65.1101C68.2942 67.3053 70.5566 69.7931 72.5194 72.7085C75.5493 77.2091 75.861 82.5275 75.8638 82.5808C75.8739 82.7784 75.9621 82.9639 76.1089 83.0965C76.1817 83.1621 76.2666 83.2128 76.3589 83.2456C76.4512 83.2784 76.5491 83.2928 76.6469 83.2877C76.7448 83.2827 76.8407 83.2585 76.9291 83.2164C77.0176 83.1744 77.0969 83.1153 77.1626 83.0426C77.2282 82.9698 77.2789 82.8849 77.3117 82.7926C77.3445 82.7003 77.3588 82.6024 77.3538 82.5046C77.3475 82.3783 77.2507 80.6971 76.6466 78.4127C77.7647 78.0463 78.9843 77.8439 79.9849 77.8602C80.2012 78.426 80.3351 78.9319 80.3703 79.3581C80.6484 82.711 78.4001 87.0272 75.8315 88.0719Z" fill="#F2F2F2"/>
</svg>
