<svg width="55" height="54" viewBox="0 0 55 54" fill="none" xmlns="http://www.w3.org/2000/svg">
<path d="M31.9648 26.6265C31.9648 24.2358 29.966 22.2976 27.5 22.2976C25.0343 22.2976 23.0352 24.2358 23.0352 26.6265C23.0352 29.0174 25.0343 30.9557 27.5 30.9557C29.966 30.9557 31.9648 29.0174 31.9648 26.6265Z" fill="#53C1DE"/>
<path fill-rule="evenodd" clip-rule="evenodd" d="M42.0006 18.5895C42.9435 14.8746 44.1287 7.9858 39.9506 5.65027C35.7922 3.32491 30.3807 7.78071 27.5232 10.4553C24.674 7.80736 19.1106 3.37061 14.936 5.71356C10.7792 8.04671 12.0611 14.8213 13.0248 18.5595C9.14718 19.6273 2.5 21.9273 2.5 26.6265C2.5 31.3124 9.14027 33.8147 12.995 34.8815C12.0276 38.6403 10.8099 45.3182 14.9721 47.6461C19.1621 49.9886 24.7084 45.6575 27.5923 42.9537C30.4681 45.644 35.8277 50.0034 39.9869 47.669C44.1594 45.3272 43.0726 38.5307 42.1088 34.7708C45.8454 33.7017 52.5 31.2539 52.5 26.6265C52.5 21.9725 45.8172 19.6538 42.0006 18.5895ZM41.5271 32.7783C40.8942 30.836 40.0401 28.7705 38.9952 26.6368C39.9925 24.5535 40.8134 22.5147 41.4286 20.5848C44.2265 21.3713 50.3642 23.1688 50.3642 26.6265C50.3642 30.1166 44.4744 31.9312 41.5271 32.7783ZM38.9166 45.8767C35.8134 47.6183 31.2036 43.4494 29.0797 41.4681C30.4886 39.974 31.8967 38.237 33.2708 36.3082C35.6881 36.1003 37.9717 35.7603 40.0427 35.2962C40.7211 37.9557 42.0337 44.1271 38.9166 45.8767ZM16.0394 45.8518C12.9357 44.1167 14.3543 38.1577 15.0659 35.3889C17.1139 35.8281 19.3809 36.1441 21.804 36.3346C23.1872 38.222 24.6359 39.9569 26.096 41.4761C24.2921 43.1679 19.1575 47.595 16.0394 45.8518ZM4.63581 26.6265C4.63581 23.1233 10.7368 21.3389 13.5984 20.5543C14.2242 22.5275 15.0449 24.5907 16.0354 26.6769C15.0321 28.7943 14.1996 30.8902 13.5681 32.8866C10.8395 32.1294 4.63581 30.1319 4.63581 26.6265ZM16.0062 7.5059C19.1225 5.75694 23.9579 10.0164 26.0265 11.9335C24.574 13.4459 23.1385 15.1677 21.7672 17.0441C19.4157 17.2554 17.1646 17.5949 15.0952 18.0495C14.3188 15.0345 12.8932 9.25298 16.0062 7.5059ZM34.7988 19.2952C36.3942 19.4904 37.9226 19.75 39.3578 20.0677C38.927 21.4067 38.39 22.8069 37.7575 24.2422C36.8407 22.5555 35.8565 20.9027 34.7988 19.2952ZM27.5239 13.4135C28.509 14.4483 29.4957 15.6038 30.4663 16.8574C28.4975 16.7672 26.5255 16.7668 24.5567 16.8562C25.5282 15.6141 26.5233 14.4603 27.5239 13.4135ZM17.2608 24.2407C16.6388 22.8103 16.1066 21.404 15.672 20.0459C17.0986 19.7363 18.62 19.4833 20.205 19.2913C19.1444 20.8953 18.1618 22.5475 17.2608 24.2407ZM20.2506 34.1095C18.6131 33.9323 17.0688 33.6922 15.6426 33.3912C16.0841 32.0091 16.628 30.5725 17.2633 29.1114C18.1767 30.8221 19.1741 32.4904 20.2506 34.1095ZM27.583 39.9858C26.5706 38.9266 25.5609 37.7552 24.5747 36.4951C26.5547 36.5706 28.5386 36.5707 30.5183 36.485C29.5446 37.768 28.5615 38.9412 27.583 39.9858ZM37.7779 29.037C38.4462 30.5139 39.0095 31.9428 39.457 33.3016C38.0071 33.6223 36.442 33.8806 34.7928 34.0724C35.8584 32.4345 36.8581 30.756 37.7779 29.037ZM32.0788 34.3235C29.0502 34.5333 26.0026 34.531 22.973 34.3406C21.2515 31.9024 19.7191 29.3383 18.3962 26.6763C19.7126 24.0198 21.2339 21.4607 22.9473 19.0263C25.9792 18.8041 29.0297 18.8036 32.0615 19.0276C33.7601 21.4619 35.2792 24.0143 36.6261 26.6469C35.2951 29.3021 33.7659 31.8663 32.0788 34.3235ZM38.8839 7.44433C42.001 9.18756 40.6135 15.3788 39.9325 18.0709C37.8582 17.6069 35.6056 17.2614 33.2471 17.0469C31.8732 15.1501 30.4497 13.4253 29.0206 11.9325C31.1159 9.97401 35.7968 5.71815 38.8839 7.44433Z" fill="#53C1DE"/>
</svg>
