<svg width="55" height="54" viewBox="0 0 55 54" fill="none" xmlns="http://www.w3.org/2000/svg">
<path d="M27.4901 12C20.8259 12 16.661 15.3312 14.9947 21.9929C17.4941 18.6617 20.4096 17.413 23.7414 18.2455C25.6426 18.7205 27.0014 20.0998 28.5057 21.626C30.9557 24.1122 33.7912 26.9897 39.9855 26.9897C46.6491 26.9897 50.8146 23.6585 52.4802 16.9961C49.9815 20.3273 47.0659 21.5767 43.7335 20.7442C41.8329 20.2692 40.4742 18.8899 38.9699 17.3636C36.5199 14.8774 33.6837 12 27.4901 12ZM14.9947 26.9897C8.33113 26.9897 4.16559 30.3209 2.5 36.9832C4.9987 33.652 7.91426 32.4027 11.2467 33.2358C13.1473 33.7114 14.506 35.0901 16.0103 36.6157C18.4603 39.1019 21.2965 41.98 27.4901 41.98C34.1543 41.98 38.3193 38.6488 39.9855 31.9865C37.4861 35.3176 34.5706 36.567 31.2388 35.7339C29.3376 35.2595 27.9788 33.8795 26.4745 32.3539C24.0246 29.8678 21.189 26.9897 14.9947 26.9897Z" fill="#06B6D4"/>
</svg>
