<svg width="95" height="94" viewBox="0 0 95 94" fill="none" xmlns="http://www.w3.org/2000/svg">
<g clip-path="url(#clip0_2375_5309)">
<mask id="mask0_2375_5309" style="mask-type:luminance" maskUnits="userSpaceOnUse" x="2" y="1" width="93" height="93">
<path d="M2 1H95V94H2V1Z" fill="white"/>
</mask>
<g mask="url(#mask0_2375_5309)">
<path d="M92.5415 56.0639L92.5413 56.0667C92.0624 62.7993 89.8546 69.0641 86.3556 74.4009C79.474 84.92 67.5921 91.8685 54.0897 91.8685C45.7119 91.8685 37.957 89.1787 31.6358 84.6186C21.892 77.591 15.5392 66.1119 15.5392 53.1884V52.8767L15.7211 52.6235L38.4005 21.0591L38.5807 20.8081L38.873 20.7081L56.0399 14.83L56.2205 14.7682L56.4111 14.7795C60.9611 15.0506 65.294 16.1084 69.2836 17.8236L69.2839 17.8237C70.531 18.3604 71.7491 18.9621 72.9332 19.6263L72.9338 19.6267C84.6881 26.2332 92.6351 38.8282 92.6351 53.2849C92.6351 54.221 92.604 55.1473 92.5415 56.0639Z" fill="#A6E7F0" stroke="#F2F2F2" stroke-width="1.93618"/>
<path fill-rule="evenodd" clip-rule="evenodd" d="M72.4592 20.471C83.9208 26.913 91.6666 39.1924 91.6666 53.2853C91.6666 54.2 91.6361 55.1041 91.5753 55.9985C90.7175 61.729 80.8141 61.1803 80.2914 56.1863C79.8092 51.5885 75.5708 51.4717 73.6216 51.2787C68.8197 50.791 66.6421 47.3566 72.7739 39.299C77.8803 32.5879 59.155 25.775 68.9009 18.7132C70.1169 19.2367 71.3046 19.8234 72.4592 20.471Z" fill="#80D261"/>
<path fill-rule="evenodd" clip-rule="evenodd" d="M57.4552 28.7825L59.8103 30.8755C61.0083 31.9425 61.1201 33.7969 60.054 35.0009L54.2572 41.5293L49.8311 38.2828L50.1103 32.6589L53.3385 29.0264C54.4045 27.8224 56.2572 27.7156 57.4552 28.7825Z" fill="#838383"/>
<path fill-rule="evenodd" clip-rule="evenodd" d="M50.1101 32.6573L54.2572 41.5277L56.0692 45.4143C57.4145 48.2898 56.445 51.2009 55.3688 52.4101L53.2775 54.7622C51.6989 56.5454 50.3893 56.0119 49.1203 54.0865L36.9126 36.0206L38.6283 27.8768L47.2879 26.6117L50.1101 32.6573Z" fill="#ACACAC"/>
<path fill-rule="evenodd" clip-rule="evenodd" d="M27.8264 44.2621L32.3186 53.3053C33.4201 55.5255 32.608 57.8268 31.7703 58.7718L30.6232 60.0622C29.3897 61.4542 28.3644 61.0428 27.3746 59.534L20.2124 51.1666L21.9078 46.2739L27.8264 44.2621Z" fill="#ACACAC"/>
<path fill-rule="evenodd" clip-rule="evenodd" d="M10.5175 33.919L19.8724 37.211L19.8319 43.6226L13.9896 45.4922L4.91887 39.5635C3.30966 38.7557 2.77663 37.7852 4.01527 36.3982L5.16237 35.1027C6.00003 34.1628 8.18262 33.0961 10.5175 33.919Z" fill="#ACACAC"/>
<path fill-rule="evenodd" clip-rule="evenodd" d="M64.6679 72.9006C68.0129 67.3375 78.3171 66.0674 85.5452 73.8709C78.8348 84.1283 67.2517 90.9004 54.0895 90.9004C45.9224 90.9004 38.3642 88.279 32.202 83.8337C31.862 73.5256 40.1814 70.8531 46.8868 76.396C49.7752 78.7785 60.4497 79.932 64.6679 72.9006Z" fill="#80D261"/>
<path fill-rule="evenodd" clip-rule="evenodd" d="M27.4761 3.10108C28.1664 3.10108 28.8567 3.33996 29.405 3.83264L31.7602 5.92582C32.9633 6.99276 33.0698 8.85205 32.0039 10.0512L28.7807 13.6836H21.9078L19.4917 10.6049L25.2883 4.07649C25.5617 3.76921 25.8972 3.52339 26.2725 3.35526C26.6479 3.18712 27.0547 3.10049 27.466 3.10108H27.4761Z" fill="#838383"/>
<path fill-rule="evenodd" clip-rule="evenodd" d="M19.4917 10.6046L28.7807 13.6834L35.1054 15.7766L33.9886 23.9559L26.9939 27.1973L7.62914 17.1839C5.5683 16.1475 4.88811 14.9128 6.4719 13.1297L8.56313 10.7774C9.63416 9.56827 12.4107 8.26263 15.4209 9.25848L19.4917 10.6046Z" fill="#ACACAC"/>
<path fill-rule="evenodd" clip-rule="evenodd" d="M46.2317 4.95922C49.3433 4.03464 53.4598 3.41985 55.4192 5.1828C57.3988 6.92017 57.2669 11.0811 56.7136 14.2818C56.6295 14.7777 56.5091 15.2668 56.3532 15.7451C55.6324 18.0108 54.0842 20.4341 51.4649 22.8269L47.2874 26.6119L36.9122 36.0209L20.1973 51.1504L19.4865 51.821C18.4713 52.6642 17.4461 53.0911 16.5069 53.1876C13.3395 53.5127 11.1315 50.0834 13.3598 46.3748L13.9893 45.4908L26.9938 27.1962L35.1051 15.7753L38.3742 11.1828C40.8867 7.66701 43.6378 5.73148 46.2317 4.95922Z" fill="#ECECEC"/>
<path fill-rule="evenodd" clip-rule="evenodd" d="M43.8158 23.1729L33.4405 32.5818L16.7254 47.7113L16.0148 48.3819C14.9944 49.2251 13.9742 49.6518 13.0353 49.7483C12.8423 49.7688 12.6546 49.7739 12.4717 49.7688C12.6595 51.9076 14.3651 53.4063 16.5072 53.1879C17.4463 53.0913 18.4715 52.6646 19.4867 51.8214L20.1975 51.1507L36.9125 36.0212L47.2878 26.6124L51.4653 22.8274C54.0844 20.4345 55.6326 18.0111 56.3534 15.7453C56.5093 15.2671 56.6297 14.7781 56.7138 14.2822C57.2671 11.0816 57.399 6.92062 55.4194 5.18309C54.8611 4.6801 54.1301 4.37031 53.2926 4.20768C53.7849 6.18391 53.6074 8.7241 53.2419 10.8477C53.1579 11.3419 53.0374 11.8293 52.8815 12.3058C52.1606 14.5716 50.6125 16.995 47.9932 19.3878L43.8158 23.1729Z" fill="#CECECE"/>
<path fill-rule="evenodd" clip-rule="evenodd" d="M51.6633 51.7852L39.4507 33.7191L36.9126 36.0206L49.1203 54.0865C50.3893 56.0119 51.6989 56.5454 53.2775 54.7622L54.4195 53.477C53.4297 53.7817 52.5364 53.116 51.6633 51.7852Z" fill="#838383"/>
<path fill-rule="evenodd" clip-rule="evenodd" d="M57.9728 33.1466L52.9731 38.7808L54.2573 41.5293L60.0539 35.0011C61.12 33.7969 61.0084 31.9426 59.8104 30.8757L57.7395 29.0315V29.0367C58.9271 30.1034 59.0337 31.9528 57.9728 33.1466Z" fill="#595959"/>
<path fill-rule="evenodd" clip-rule="evenodd" d="M25.6279 12.7087L28.7811 13.6836L32.0042 10.0512C33.0702 8.85223 32.9636 6.99276 31.7607 5.92582L30.1465 4.48812C31.3393 5.56004 30.6683 7.22684 29.5822 8.41055L25.6279 12.7087Z" fill="#595959"/>
<path fill-rule="evenodd" clip-rule="evenodd" d="M28.8518 24.5757L9.49198 14.5623C8.05037 13.8408 7.28398 13.0179 7.49726 11.9762L6.4719 13.1297C4.88811 14.9128 5.5683 16.1473 7.62914 17.1837L26.9939 27.1973L28.8518 24.5757Z" fill="#838383"/>
<path fill-rule="evenodd" clip-rule="evenodd" d="M29.5522 57.5576L22.39 49.1902L20.2124 51.1665L27.3746 59.5339C28.3644 61.0427 29.3897 61.4543 30.6232 60.0623L31.6587 58.8988C30.9074 59.0968 30.2223 58.5737 29.5522 57.5576Z" fill="#838383"/>
<path fill-rule="evenodd" clip-rule="evenodd" d="M15.7 43.0841L6.63442 37.1552C5.54811 36.6065 4.95429 35.9919 5.06076 35.2195L4.01514 36.3982C2.77669 37.7852 3.30971 38.7555 4.91875 39.5633L13.9894 45.4922L15.7 43.0841Z" fill="#838383"/>
<path fill-rule="evenodd" clip-rule="evenodd" d="M91.6667 53.2852C91.6667 39.1922 83.9209 26.9129 72.4593 20.4709C71.8407 20.1236 71.2128 19.7932 70.5762 19.4802C76.7231 27.619 80.53 38.9077 80.53 51.3852C80.53 53.0872 80.4589 54.7636 80.3219 56.4098C81.1087 61.1955 90.7327 61.6425 91.5754 55.9983C91.6363 55.1039 91.6667 54.1998 91.6667 53.2852Z" fill="#4FC122"/>
<path fill-rule="evenodd" clip-rule="evenodd" d="M91.5757 55.9983C90.7331 61.6426 81.1091 61.1954 80.3224 56.4097C79.9519 60.8245 79.1092 65.0414 77.8555 68.9686C80.5153 69.7508 83.1953 71.3309 85.5455 73.8711C88.9566 68.6688 91.1088 62.5622 91.5757 55.9983Z" fill="#6BD9E7"/>
<path fill-rule="evenodd" clip-rule="evenodd" d="M77.855 68.9688C75.18 77.3716 70.642 84.4587 64.9419 89.3105C73.4897 86.7298 80.7585 81.187 85.5451 73.8713C83.1949 71.3311 80.5148 69.751 77.855 68.9688Z" fill="#4FC122"/>
</g>
</g>
<defs>
<clipPath id="clip0_2375_5309">
<rect width="94" height="94" fill="white" transform="translate(0.5)"/>
</clipPath>
</defs>
</svg>
